<?xml version="1.0" standalone="no"?>
<!DOCTYPE svg PUBLIC "-//W3C//DTD SVG 20010904//EN"
 "http://www.w3.org/TR/2001/REC-SVG-20010904/DTD/svg10.dtd">
<svg version="1.0" xmlns="http://www.w3.org/2000/svg"
 width="571.000000pt" height="571.000000pt" viewBox="0 0 571.000000 571.000000"
 preserveAspectRatio="xMidYMid meet">
<metadata>
Created by potrace 1.14, written by Peter Selinger 2001-2017
</metadata>
<g transform="translate(0.000000,571.000000) scale(0.100000,-0.100000)"
fill="#000000" stroke="none">
<path d="M2610 5680 c-870 -84 -1638 -545 -2116 -1270 -234 -355 -383 -757
-446 -1200 -17 -127 -17 -583 0 -710 85 -601 324 -1115 725 -1560 389 -432
944 -745 1529 -864 412 -83 851 -72 1262 33 923 236 1665 920 1977 1821 208
601 208 1249 -1 1854 -238 690 -750 1274 -1400 1600 -299 149 -578 236 -910
282 -129 18 -491 26 -620 14z m1950 -1570 c34 -38 150 -120 220 -155 47 -24
180 -154 180 -176 0 -45 -61 -26 -120 36 -49 53 -122 85 -191 85 -119 0 -323
-53 -742 -194 -378 -127 -374 -126 -431 -175 -24 -21 -80 -58 -122 -82 l-78
-42 24 -16 c37 -24 60 -49 60 -66 0 -19 -54 -19 -135 0 -55 14 -62 13 -85 -3
-14 -10 -56 -40 -95 -67 -99 -69 -163 -124 -187 -165 -12 -19 -41 -64 -64
-100 -64 -100 -134 -277 -134 -342 0 -59 5 -70 38 -87 32 -17 79 -2 255 84
266 130 391 169 738 233 121 23 172 49 219 114 37 50 37 61 5 86 -36 28 -99
35 -340 36 -115 1 -216 5 -222 9 -19 12 -17 102 2 117 17 14 -3 13 640 28 248
6 460 14 471 17 29 9 215 -10 394 -40 80 -13 169 -26 199 -30 73 -8 110 -29
111 -61 0 -7 -31 -14 -79 -18 -107 -10 -192 -31 -208 -52 -21 -29 -15 -72 18
-135 18 -33 30 -62 27 -64 -3 -3 -40 0 -84 6 -105 14 -249 -6 -367 -52 -57
-22 -261 -142 -297 -174 -68 -62 -371 -229 -497 -275 -53 -19 -75 -36 -163
-126 -78 -79 -122 -116 -184 -150 -45 -25 -125 -76 -177 -114 -87 -62 -146
-90 -191 -90 -14 0 -18 8 -18 33 0 59 19 102 73 168 41 49 64 68 94 77 50 15
81 56 64 84 -20 33 -12 65 32 118 81 99 97 123 97 146 0 21 -23 54 -38 54 -4
0 -52 -16 -107 -35 -55 -20 -125 -44 -155 -54 -30 -11 -98 -38 -150 -61 -62
-27 -103 -40 -120 -36 -14 2 -38 8 -55 11 -16 3 -40 8 -53 11 -68 14 -87 207
-38 389 44 164 123 345 198 458 45 67 58 63 -136 41 -128 -14 -239 -34 -441
-78 -38 -9 -82 -16 -97 -16 -29 0 -197 -39 -298 -69 -101 -30 -152 -56 -196
-103 -38 -40 -147 -200 -260 -381 -27 -43 -66 -106 -88 -140 -21 -34 -67 -109
-102 -167 -36 -58 -73 -116 -83 -130 -10 -14 -50 -74 -88 -135 -38 -60 -90
-141 -114 -180 -83 -131 -129 -165 -205 -150 -28 5 -39 13 -50 40 -8 19 -14
43 -14 53 0 21 103 240 169 360 22 39 127 204 234 365 221 332 247 375 247
405 0 34 -53 29 -196 -18 -158 -51 -183 -52 -223 -3 -17 21 -31 43 -31 50 0
19 68 60 146 89 173 64 321 114 340 114 11 0 43 12 72 26 58 29 73 58 54 108
-15 37 -8 45 57 62 44 11 58 11 99 -2 26 -8 109 -19 185 -24 76 -6 142 -12
146 -15 5 -2 102 11 217 30 261 44 459 65 611 65 166 1 199 12 281 92 62 61
157 120 231 143 13 4 54 27 92 51 193 125 529 259 796 319 65 14 163 39 218
54 120 35 148 32 195 -19z m-1839 -310 c33 -7 63 -20 78 -34 l24 -24 -34 -17
c-20 -11 -72 -21 -134 -25 -55 -5 -210 -29 -345 -54 -135 -26 -290 -53 -345
-62 -55 -8 -183 -31 -285 -50 -222 -42 -272 -44 -334 -15 -44 22 -67 54 -49
72 8 8 249 70 398 102 75 17 236 41 375 57 47 6 128 19 180 30 52 11 109 21
125 23 66 9 296 6 346 -3z"/>
</g>
</svg>
