<?xml version="1.0" standalone="no"?>
<!DOCTYPE svg PUBLIC "-//W3C//DTD SVG 20010904//EN"
 "http://www.w3.org/TR/2001/REC-SVG-20010904/DTD/svg10.dtd">
<svg version="1.0" xmlns="http://www.w3.org/2000/svg"
 width="250.000000pt" height="250.000000pt" viewBox="0 0 250.000000 250.000000"
 preserveAspectRatio="xMidYMid meet">
<metadata>
Created by potrace 1.14, written by Peter Selinger 2001-2017
</metadata>
<g transform="translate(0.000000,250.000000) scale(0.100000,-0.100000)"
fill="#000000" stroke="none">
<path d="M1115 2491 c-519 -86 -912 -458 -1027 -971 -33 -151 -33 -391 1 -535
31 -130 99 -305 119 -305 4 0 20 30 36 67 16 38 66 140 111 228 75 146 110
225 100 225 -2 0 -24 -9 -50 -20 -57 -25 -120 -27 -129 -4 -3 9 -6 29 -6 45 0
34 37 61 163 115 96 42 103 48 114 94 l9 35 180 6 c98 4 213 14 254 22 41 9
112 19 157 22 l82 8 116 92 c192 155 267 197 473 269 110 38 146 43 185 25 31
-14 197 -202 197 -223 0 -30 -23 -27 -76 9 -63 44 -102 48 -198 20 -122 -36
-373 -159 -439 -216 -46 -40 -48 -43 -42 -81 7 -38 6 -40 -15 -33 -38 12 -90
-5 -131 -42 -73 -66 -150 -226 -160 -333 -4 -33 -2 -35 25 -33 17 1 50 13 75
26 182 94 236 118 314 138 70 17 92 27 113 52 13 16 23 35 21 41 -5 15 -66 25
-154 25 -51 1 -76 5 -87 17 -17 16 -21 61 -8 81 15 24 108 33 414 39 l307 7
66 -32 c53 -26 65 -37 65 -56 0 -28 -26 -45 -67 -45 -42 0 -53 -17 -53 -81 l0
-56 -61 -7 c-88 -9 -186 -60 -304 -157 -55 -46 -131 -105 -169 -131 -38 -27
-117 -98 -174 -158 -115 -122 -164 -155 -199 -136 l-22 11 23 57 c13 31 37 74
53 95 18 22 34 57 38 82 4 24 16 58 26 75 22 36 25 71 7 63 -7 -3 -61 -26
-121 -52 -97 -42 -111 -45 -141 -35 -44 14 -56 44 -56 143 0 89 30 220 75 326
14 33 25 63 25 66 0 14 -278 -41 -390 -77 -97 -32 -141 -82 -233 -270 -41 -84
-114 -233 -162 -330 l-87 -177 30 -43 c44 -63 196 -206 278 -261 481 -318
1095 -265 1505 130 184 177 289 360 355 618 26 101 29 125 29 290 -1 161 -3
191 -27 285 -61 241 -158 419 -322 588 -166 172 -346 276 -586 339 -76 20
-125 26 -245 28 -82 2 -172 0 -200 -4z m8 -765 c52 -23 70 -40 63 -62 -10 -31
-53 -50 -186 -79 -69 -15 -172 -37 -230 -50 -58 -13 -137 -26 -177 -30 -64 -6
-73 -5 -92 14 -24 24 -27 53 -8 70 25 20 511 149 570 150 15 1 42 -5 60 -13z"/>
</g>
</svg>
