<?xml version="1.0" standalone="no"?>
<!DOCTYPE svg PUBLIC "-//W3C//DTD SVG 20010904//EN"
 "http://www.w3.org/TR/2001/REC-SVG-20010904/DTD/svg10.dtd">
<svg version="1.0" xmlns="http://www.w3.org/2000/svg"
 width="1080.000000pt" height="1080.000000pt" viewBox="0 0 1080.000000 1080.000000"
 preserveAspectRatio="xMidYMid meet">
<metadata>
Created by potrace 1.14, written by Peter Selinger 2001-2017
</metadata>
<g transform="translate(0.000000,1080.000000) scale(0.100000,-0.100000)"
fill="#000000" stroke="none">
<path d="M5075 10789 c-871 -46 -1785 -339 -2545 -817 -597 -376 -1093 -842
-1518 -1429 -347 -478 -636 -1074 -798 -1643 -249 -873 -279 -1774 -88 -2650
220 -1012 723 -1932 1458 -2665 602 -600 1294 -1031 2091 -1301 1028 -349
2153 -374 3210 -73 1088 310 2046 953 2757 1850 498 629 859 1394 1032 2189
304 1393 44 2850 -724 4055 -321 504 -766 993 -1235 1356 -562 436 -1217 764
-1884 943 -596 161 -1131 217 -1756 185z m757 -1170 c2 -7 57 -17 140 -25 75
-7 160 -19 189 -27 30 -9 81 -20 114 -26 94 -16 230 -48 251 -59 10 -5 39 -13
63 -17 24 -4 62 -16 85 -26 23 -10 50 -19 61 -19 11 0 38 -9 60 -20 22 -11 47
-19 55 -20 9 0 32 -9 53 -19 20 -10 48 -22 62 -25 14 -4 62 -24 107 -46 46
-22 88 -40 94 -40 22 0 360 -179 434 -230 14 -10 77 -52 140 -94 63 -41 140
-94 170 -116 30 -22 70 -50 88 -61 17 -12 32 -24 32 -29 0 -4 22 -22 48 -41
120 -84 406 -363 542 -529 52 -63 101 -123 109 -132 9 -9 33 -40 54 -70 79
-109 148 -203 155 -213 9 -11 75 -123 103 -175 9 -16 22 -36 28 -44 21 -25
231 -447 231 -464 0 -10 9 -30 20 -47 11 -16 20 -38 20 -48 0 -10 9 -35 19
-55 19 -34 30 -67 66 -182 8 -25 20 -65 28 -90 52 -161 99 -360 95 -396 l-3
-29 -286 -3 c-222 -2 -288 1 -296 10 -15 21 -43 102 -43 128 -1 14 -8 43 -16
65 -9 22 -22 63 -29 90 -8 28 -26 82 -40 120 -15 39 -35 93 -45 121 -10 28
-23 60 -28 70 -6 10 -32 69 -58 129 -26 61 -53 117 -60 125 -6 8 -19 31 -28
50 -9 19 -27 53 -41 75 -13 22 -27 47 -31 55 -4 8 -26 44 -48 80 -23 36 -46
72 -51 81 -25 42 -128 181 -209 282 -162 205 -487 515 -686 657 -67 47 -255
172 -290 192 -19 10 -53 30 -75 43 -22 14 -51 29 -65 35 -14 5 -32 15 -40 20
-8 6 -25 15 -37 20 -13 6 -33 14 -45 20 -13 5 -30 14 -38 19 -8 6 -35 19 -60
30 -131 58 -163 71 -174 71 -6 0 -28 9 -49 20 -20 11 -45 20 -55 20 -10 0 -27
7 -39 15 -12 8 -46 20 -75 25 -29 6 -66 16 -83 24 -16 8 -50 17 -75 21 -25 4
-53 12 -63 17 -10 5 -52 15 -95 23 -42 8 -111 21 -152 29 -219 42 -340 51
-660 51 -254 0 -331 -4 -395 -17 -44 -9 -115 -19 -158 -23 -43 -3 -90 -11
-105 -16 -15 -6 -58 -16 -97 -23 -105 -20 -204 -46 -257 -67 -26 -10 -57 -19
-70 -19 -13 -1 -41 -9 -63 -20 -22 -11 -46 -19 -52 -20 -7 0 -43 -12 -80 -27
-110 -43 -163 -66 -293 -127 -46 -22 -266 -144 -329 -183 -20 -12 -49 -30 -66
-39 -16 -9 -48 -31 -69 -48 -22 -17 -61 -44 -86 -61 -25 -16 -54 -38 -65 -48
-11 -10 -60 -50 -110 -89 -125 -99 -381 -353 -480 -478 -46 -58 -92 -114 -102
-125 -10 -11 -45 -60 -79 -110 -33 -49 -81 -121 -107 -159 -26 -39 -47 -75
-47 -82 0 -6 -7 -17 -15 -24 -22 -18 -245 -475 -245 -502 0 -6 -7 -24 -15 -41
-20 -45 -45 -115 -57 -162 -6 -22 -18 -62 -28 -90 -23 -66 -43 -148 -79 -330
-44 -223 -65 -403 -66 -560 l0 -140 876 -3 c800 -2 878 -4 890 -19 21 -24 20
-742 0 -766 -12 -16 -83 -17 -830 -17 -677 0 -820 -2 -836 -14 -18 -13 -18
-16 -3 -57 9 -24 22 -70 28 -101 6 -32 15 -60 20 -63 4 -3 11 -24 15 -48 4
-23 16 -61 26 -84 11 -23 19 -47 19 -52 0 -10 39 -117 65 -176 41 -95 56 -127
88 -195 43 -89 136 -256 187 -335 11 -16 27 -43 36 -60 9 -16 31 -48 48 -70
17 -22 45 -60 61 -85 116 -177 454 -533 662 -697 159 -125 401 -293 423 -293
5 0 21 -10 37 -23 31 -26 373 -197 393 -197 7 0 27 -9 44 -19 17 -10 47 -22
66 -26 19 -4 44 -14 55 -21 11 -8 29 -14 40 -14 11 0 30 -6 41 -14 11 -8 47
-21 80 -30 32 -8 77 -21 99 -30 22 -8 53 -15 68 -16 15 0 40 -6 55 -14 15 -8
50 -17 77 -21 28 -4 78 -14 113 -21 35 -8 116 -21 180 -29 64 -8 151 -20 192
-26 94 -14 675 -6 739 11 24 6 86 15 136 20 51 4 117 15 146 24 30 8 79 19
109 25 61 11 123 26 190 48 25 8 68 21 95 28 72 20 166 53 195 69 14 7 39 16
55 20 17 4 67 25 113 47 46 21 87 39 92 39 5 0 36 14 67 32 32 17 74 40 93 50
70 37 168 93 181 104 8 6 39 25 69 43 30 17 68 42 85 54 16 12 75 55 130 96
152 114 216 169 384 334 162 161 240 249 362 412 86 115 209 299 209 314 0 5
10 22 23 38 24 30 168 316 210 418 31 77 63 163 73 195 3 14 13 34 20 45 8 11
14 31 14 45 1 14 8 43 16 65 9 22 22 65 29 96 7 30 18 72 25 91 27 73 121 68
-1161 68 -1136 0 -1149 0 -1169 20 -19 19 -20 33 -20 380 0 347 1 361 20 380
20 20 33 20 1520 20 l1500 0 0 -214 c0 -138 -4 -216 -10 -218 -6 -2 -17 -69
-25 -150 -7 -81 -18 -155 -24 -166 -6 -11 -14 -50 -19 -88 -10 -72 -32 -167
-63 -269 -10 -33 -21 -78 -25 -100 -3 -22 -12 -49 -19 -60 -7 -11 -17 -40 -23
-65 -15 -61 -49 -159 -67 -192 -8 -14 -15 -31 -15 -38 0 -6 -12 -37 -26 -68
-87 -192 -104 -230 -104 -237 0 -4 -9 -18 -20 -32 -11 -14 -20 -32 -20 -40 0
-8 -8 -27 -19 -41 -10 -15 -32 -52 -48 -83 -16 -31 -46 -81 -66 -111 -21 -30
-37 -59 -38 -64 0 -5 -16 -29 -34 -54 -19 -25 -49 -70 -66 -100 -18 -30 -39
-63 -48 -72 -9 -9 -34 -42 -56 -74 -22 -31 -60 -80 -85 -110 -25 -29 -74 -88
-110 -131 -86 -102 -325 -342 -423 -423 -43 -36 -89 -74 -102 -85 -13 -11 -34
-28 -47 -38 -13 -9 -43 -33 -67 -53 -24 -19 -67 -51 -95 -70 -28 -19 -69 -48
-91 -65 -22 -16 -67 -45 -100 -64 -33 -20 -82 -50 -110 -67 -53 -33 -141 -81
-265 -142 -41 -21 -82 -42 -90 -47 -8 -5 -26 -14 -40 -19 -14 -6 -41 -19 -61
-30 -20 -11 -44 -20 -53 -20 -8 0 -30 -9 -48 -20 -18 -11 -41 -20 -51 -20 -10
0 -35 -9 -55 -19 -35 -19 -77 -34 -182 -66 -25 -8 -65 -21 -90 -29 -146 -45
-303 -85 -405 -101 -44 -7 -98 -17 -120 -23 -22 -6 -93 -16 -157 -22 -65 -7
-118 -16 -118 -21 0 -12 -847 -12 -852 1 -1 5 -72 16 -156 25 -84 8 -161 19
-170 24 -10 5 -53 14 -96 20 -43 6 -83 14 -89 18 -6 3 -47 14 -91 24 -134 29
-210 50 -236 64 -14 7 -43 16 -65 21 -22 4 -56 15 -75 25 -19 11 -43 19 -53
19 -10 0 -35 9 -57 20 -22 11 -45 20 -52 20 -7 0 -49 18 -93 40 -44 22 -85 40
-91 40 -15 0 -264 128 -359 184 -153 91 -276 171 -405 266 -30 22 -66 48 -80
57 -14 9 -29 22 -35 28 -5 6 -32 29 -60 50 -112 84 -402 363 -491 471 -168
204 -328 413 -369 484 -14 25 -39 65 -55 90 -16 25 -34 54 -39 66 -5 11 -21
37 -35 58 -31 47 -226 437 -226 454 0 7 -9 29 -20 49 -11 21 -20 43 -20 50 0
7 -9 30 -20 50 -11 21 -20 44 -20 51 0 7 -8 34 -19 60 -10 26 -31 88 -45 137
-15 50 -32 104 -37 120 -15 44 -47 185 -69 302 -10 57 -21 107 -24 112 -3 4
-12 71 -21 147 -8 77 -20 141 -25 142 -14 5 -14 849 0 854 6 2 15 48 21 103
11 109 22 185 38 255 5 25 14 70 20 100 5 30 19 91 30 135 11 44 28 109 37
145 8 36 22 80 30 98 8 18 18 50 24 70 13 54 48 153 64 182 7 14 16 38 20 54
4 16 22 59 41 97 18 37 36 78 40 91 9 29 98 209 131 263 13 22 29 51 36 65 7
14 29 51 50 83 21 32 38 61 38 64 0 5 99 154 170 257 80 115 340 419 454 530
117 114 405 356 496 419 127 87 251 167 258 167 5 0 17 9 27 20 10 11 24 20
30 20 7 0 24 9 38 20 37 29 435 228 472 236 16 3 37 12 45 19 8 6 35 19 60 27
25 9 77 28 115 42 39 15 93 33 120 41 28 7 73 21 100 30 121 39 327 90 405
100 25 3 72 12 105 20 33 7 110 19 170 25 61 6 112 15 113 21 5 14 849 12 854
-2z m-718 -2909 l26 -10 0 -1835 c0 -1822 0 -1835 -20 -1855 -19 -19 -33 -20
-378 -20 -294 0 -362 3 -378 14 -19 14 -19 42 -22 1457 -1 1040 -5 1446 -13
1456 -9 11 -193 13 -1045 13 l-1033 0 -15 22 c-14 19 -16 69 -16 348 0 363 3
398 34 410 30 12 2828 12 2860 0z m3456 -10 c6 -9 10 -166 10 -377 0 -315 -2
-364 -16 -377 -14 -14 -135 -16 -1179 -16 -1141 0 -1165 0 -1175 -19 -7 -13
-10 -482 -10 -1446 l0 -1425 -26 -10 c-15 -6 -177 -10 -388 -10 -294 0 -366 3
-375 14 -8 10 -10 497 -9 1837 l3 1823 25 13 c20 10 339 12 1578 10 1368 -2
1554 -4 1562 -17z"/>
</g>
</svg>
