<svg width="682" height="200" viewBox="0 0 682 200" fill="none" xmlns="http://www.w3.org/2000/svg">
<path d="M235.565 129V71.896H274.907V84.512H253.41V96.049H273.33V107.171H253.41V129H235.565ZM307.933 130.328C301.957 130.328 296.755 129.111 292.329 126.676C287.957 124.241 284.554 120.866 282.12 116.55C279.685 112.234 278.468 107.254 278.468 101.61C278.468 95.5787 279.74 90.239 282.286 85.591C284.831 80.943 288.4 77.291 292.993 74.635C297.585 71.979 302.925 70.651 309.012 70.651C315.652 70.651 320.936 71.979 324.865 74.635L322.375 87.666C318.889 86.172 315.264 85.425 311.502 85.425C306.964 85.425 303.395 86.7807 300.795 89.492C298.194 92.2033 296.894 95.966 296.894 100.78C296.894 105.649 298.056 109.44 300.38 112.151C302.759 114.862 305.775 116.218 309.427 116.218C310.755 116.218 311.861 116.107 312.747 115.886V101.693L327.106 100.033V126.012C323.952 127.451 320.742 128.53 317.478 129.249C314.213 129.968 311.031 130.328 307.933 130.328ZM378.962 130.328C372.93 130.328 367.618 129.055 363.026 126.51C358.433 123.965 354.836 120.451 352.236 115.969C349.69 111.487 348.418 106.341 348.418 100.531C348.418 94.6657 349.69 89.492 352.236 85.01C354.836 80.528 358.433 77.0143 363.026 74.469C367.618 71.9237 372.93 70.651 378.962 70.651C384.993 70.651 390.305 71.9237 394.898 74.469C399.49 76.959 403.059 80.445 405.605 84.927C408.205 89.409 409.506 94.6103 409.506 100.531C409.506 106.341 408.205 111.487 405.605 115.969C403.059 120.451 399.49 123.965 394.898 126.51C390.305 129.055 384.993 130.328 378.962 130.328ZM378.962 115.222C382.448 115.222 385.297 113.866 387.511 111.155C389.779 108.444 390.914 104.875 390.914 100.448C390.914 97.46 390.388 94.8317 389.337 92.563C388.341 90.2943 386.93 88.5237 385.104 87.251C383.333 85.923 381.258 85.259 378.879 85.259C375.393 85.259 372.543 86.67 370.33 89.492C368.116 92.2587 367.01 95.9107 367.01 100.448C367.01 104.875 368.116 108.444 370.33 111.155C372.543 113.866 375.42 115.222 378.962 115.222ZM416.9 129V97.709H411.671V87.417H416.9V85.01C416.9 81.9667 417.647 79.366 419.141 77.208C420.635 74.9947 422.71 73.307 425.366 72.145C428.022 70.9277 431.093 70.319 434.579 70.319C439.006 70.319 442.658 70.9277 445.535 72.145L444.373 82.686C443.156 82.4093 441.966 82.2157 440.804 82.105C439.642 81.939 438.508 81.856 437.401 81.856C433.694 81.856 431.84 82.9903 431.84 85.259C431.84 85.9783 432.034 86.6977 432.421 87.417H444.124V97.709H434.413V129H416.9ZM487.201 81.192C484.656 81.192 482.47 80.3897 480.644 78.785C478.818 77.125 477.905 75.1053 477.905 72.726C477.905 71.066 478.348 69.6273 479.233 68.41C480.118 67.1373 481.28 66.1413 482.719 65.422C484.158 64.7027 485.652 64.343 487.201 64.343C488.916 64.343 490.466 64.7303 491.849 65.505C493.288 66.2797 494.422 67.3033 495.252 68.576C496.137 69.8487 496.58 71.232 496.58 72.726C496.58 74.386 496.11 75.8523 495.169 77.125C494.284 78.3977 493.122 79.3937 491.683 80.113C490.3 80.8323 488.806 81.192 487.201 81.192ZM503.137 115.222L504.05 126.759C502.833 127.7 501.256 128.419 499.319 128.917C497.382 129.415 495.612 129.664 494.007 129.664C490.3 129.664 487.284 129 484.96 127.672C482.691 126.344 481.031 124.546 479.98 122.277C478.929 120.008 478.403 117.463 478.403 114.641V97.709H465.123V129H447.61V97.709H442.381V87.417H447.61V85.01C447.61 81.9667 448.357 79.366 449.851 77.208C451.345 74.9947 453.42 73.307 456.076 72.145C458.732 70.9277 461.803 70.319 465.289 70.319C467.115 70.319 468.941 70.485 470.767 70.817C472.648 71.0937 474.281 71.5363 475.664 72.145L475.083 82.686C473.866 82.4093 472.676 82.2157 471.514 82.105C470.352 81.939 469.218 81.856 468.111 81.856C464.404 81.856 462.55 82.9903 462.55 85.259C462.55 85.9783 462.744 86.6977 463.131 87.417H495.916V112.234C495.916 113.507 496.276 114.503 496.995 115.222C497.77 115.886 498.683 116.218 499.734 116.218C500.841 116.218 501.975 115.886 503.137 115.222ZM528.805 129.664C524.157 129.664 520.146 128.751 516.77 126.925C513.395 125.099 510.794 122.609 508.968 119.455C507.142 116.246 506.229 112.566 506.229 108.416C506.229 104.321 507.17 100.642 509.051 97.377C510.933 94.1123 513.561 91.5393 516.936 89.658C520.367 87.7767 524.323 86.836 528.805 86.836C534.173 86.836 538.406 87.9427 541.504 90.156L539.678 101.444C538.295 100.835 536.995 100.42 535.777 100.199C534.56 99.9223 533.398 99.784 532.291 99.784C529.58 99.784 527.422 100.559 525.817 102.108C524.268 103.602 523.493 105.649 523.493 108.25C523.493 110.795 524.268 112.87 525.817 114.475C527.367 116.024 529.414 116.799 531.959 116.799C534.173 116.799 536.773 116.329 539.761 115.388L541.338 127.008C539.512 127.893 537.603 128.557 535.611 129C533.675 129.443 531.406 129.664 528.805 129.664ZM565.554 129.664C561.736 129.664 558.277 128.751 555.179 126.925C552.08 125.044 549.618 122.471 547.792 119.206C546.021 115.941 545.136 112.206 545.136 108.001C545.136 103.796 546.021 100.116 547.792 96.962C549.618 93.808 552.08 91.3457 555.179 89.575C558.277 87.749 561.736 86.836 565.554 86.836C568.265 86.836 570.893 87.583 573.439 89.077C575.984 90.571 577.948 93.0333 579.332 96.464V87.417H596.596V129H579.166V121.281C577.838 123.992 576.067 126.067 573.854 127.506C571.64 128.945 568.874 129.664 565.554 129.664ZM570.949 116.55C573.217 116.55 575.154 115.748 576.759 114.143C578.363 112.483 579.166 110.463 579.166 108.084C579.166 105.705 578.363 103.768 576.759 102.274C575.154 100.725 573.217 99.95 570.949 99.95C568.569 99.95 566.577 100.752 564.973 102.357C563.368 103.962 562.566 105.926 562.566 108.25C562.566 110.574 563.368 112.538 564.973 114.143C566.577 115.748 568.569 116.55 570.949 116.55ZM621.272 129.664C617.344 129.664 614.134 129 611.644 127.672C609.21 126.344 607.439 124.546 606.332 122.277C605.226 120.008 604.672 117.463 604.672 114.641V72.643L622.185 70.07V112.234C622.185 113.507 622.6 114.503 623.43 115.222C624.26 115.886 625.339 116.218 626.667 116.218C627.995 116.218 629.323 115.886 630.651 115.222L631.896 126.759C630.568 127.7 628.881 128.419 626.833 128.917C624.786 129.415 622.932 129.664 621.272 129.664Z" fill="black"/>
<rect x="93.7585" y="156.843" width="18.75" height="87.5" rx="1" transform="rotate(180 93.7585 156.843)" fill="black"/>
<rect x="93.75" y="68.75" width="18.75" height="68.75" rx="1" transform="rotate(90 93.75 68.75)" fill="black"/>
<rect x="100" y="68.75" width="18.75" height="87.5" rx="1" fill="black"/>
<rect x="106.25" y="87.5" width="18.75" height="68.75" rx="1" transform="rotate(-90 106.25 87.5)" fill="black"/>
<rect x="128.125" y="118.75" width="18.75" height="68.75" rx="1" transform="rotate(-90 128.125 118.75)" fill="black"/>
<rect x="6.25" y="118.75" width="18.75" height="50" rx="1" transform="rotate(-90 6.25 118.75)" fill="black"/>
<path fill-rule="evenodd" clip-rule="evenodd" d="M186 100C186 147.496 147.496 186 100 186C52.5035 186 14 147.496 14 100C14 52.5035 52.5035 14 100 14C141.057 14 175.394 42.7703 183.95 81.25H198.245C189.469 34.9839 148.82 0 100 0C44.7715 0 0 44.7715 0 100C0 155.228 44.7715 200 100 200C155.228 200 200 155.228 200 100H186Z" fill="black"/>
</svg>
