<svg width="678" height="200" viewBox="0 0 678 200" fill="none" xmlns="http://www.w3.org/2000/svg">
<rect x="91.902" y="154.5" width="18.2812" height="87.5" rx="1" transform="rotate(180 91.902 154.5)" fill="black"/>
<rect x="91.6501" y="135.507" width="19" height="54.6" rx="1" transform="rotate(90 91.6501 135.507)" fill="black"/>
<rect x="97.5001" y="68.7501" width="18.2812" height="87.5" rx="1" fill="black"/>
<rect x="103.594" y="87.5001" width="18.75" height="67.0312" rx="1" transform="rotate(-90 103.594 87.5001)" fill="black"/>
<rect x="124.922" y="118.75" width="18.75" height="67.0312" rx="1" transform="rotate(-90 124.922 118.75)" fill="black"/>
<path d="M16.8751 120C10.2477 120 4.87512 114.627 4.87512 108V101H62.3751C62.9274 101 63.3751 101.448 63.3751 102V119C63.3751 119.552 62.9274 120 62.3751 120H16.8751Z" fill="black"/>
<path fill-rule="evenodd" clip-rule="evenodd" d="M97.4999 186C143.284 186 181 147.833 181 100H195C195 155.229 151.348 200 97.4999 200C43.9776 200 0.527895 155.768 0.0047604 101H14.0055C14.5268 148.364 52.0357 186 97.4999 186ZM15.6257 83.0001C23.3094 43.4342 57.2939 14.0001 97.4999 14.0001C137.367 14.0001 171.116 42.9393 179.174 82.0001H193.425C185.159 35.3625 145.356 6.10352e-05 97.4999 6.10352e-05C49.3023 6.10352e-05 9.27291 35.8689 1.40315 83.0001H15.6257Z" fill="black"/>
<path d="M235.005 120V57.392H278.139V71.224H254.57V83.873H276.41V96.067H254.57V120H235.005ZM314.348 121.456C307.796 121.456 302.093 120.121 297.24 117.452C292.447 114.783 288.716 111.082 286.047 106.35C283.377 101.618 282.043 96.158 282.043 89.97C282.043 83.3573 283.438 77.503 286.229 72.407C289.019 67.311 292.932 63.307 297.968 60.395C303.003 57.483 308.857 56.027 315.531 56.027C322.811 56.027 328.604 57.483 332.912 60.395L330.182 74.682C326.36 73.044 322.386 72.225 318.261 72.225C313.286 72.225 309.373 73.7113 306.522 76.684C303.67 79.6567 302.245 83.782 302.245 89.06C302.245 94.3987 303.519 98.5543 306.067 101.527C308.675 104.5 311.982 105.986 315.986 105.986C317.442 105.986 318.655 105.865 319.626 105.622V90.061L335.369 88.241V116.724C331.911 118.301 328.392 119.484 324.813 120.273C321.233 121.062 317.745 121.456 314.348 121.456ZM392.223 121.456C385.61 121.456 379.786 120.061 374.751 117.27C369.716 114.479 365.772 110.627 362.921 105.713C360.13 100.799 358.735 95.157 358.735 88.787C358.735 82.3563 360.13 76.684 362.921 71.77C365.772 66.856 369.716 63.0037 374.751 60.213C379.786 57.4223 385.61 56.027 392.223 56.027C398.836 56.027 404.66 57.4223 409.695 60.213C414.73 62.943 418.643 66.765 421.434 71.679C424.285 76.593 425.711 82.2957 425.711 88.787C425.711 95.157 424.285 100.799 421.434 105.713C418.643 110.627 414.73 114.479 409.695 117.27C404.66 120.061 398.836 121.456 392.223 121.456ZM392.223 104.894C396.045 104.894 399.169 103.408 401.596 100.435C404.083 97.4623 405.327 93.5493 405.327 88.696C405.327 85.42 404.751 82.5383 403.598 80.051C402.506 77.5637 400.959 75.6223 398.957 74.227C397.016 72.771 394.741 72.043 392.132 72.043C388.31 72.043 385.186 73.59 382.759 76.684C380.332 79.7173 379.119 83.7213 379.119 88.696C379.119 93.5493 380.332 97.4623 382.759 100.435C385.186 103.408 388.34 104.894 392.223 104.894ZM433.818 120V85.693H428.085V74.409H433.818V71.77C433.818 68.4333 434.637 65.582 436.275 63.216C437.913 60.7893 440.188 58.939 443.1 57.665C446.012 56.3303 449.379 55.663 453.201 55.663C458.054 55.663 462.058 56.3303 465.213 57.665L463.939 69.222C462.604 68.9187 461.3 68.7063 460.026 68.585C458.752 68.403 457.508 68.312 456.295 68.312C452.23 68.312 450.198 69.5557 450.198 72.043C450.198 72.8317 450.41 73.6203 450.835 74.409H463.666V85.693H453.019V120H433.818ZM510.895 67.584C508.104 67.584 505.708 66.7043 503.706 64.945C501.704 63.125 500.703 60.9107 500.703 58.302C500.703 56.482 501.188 54.9047 502.159 53.57C503.13 52.1747 504.404 51.0827 505.981 50.294C507.558 49.5053 509.196 49.111 510.895 49.111C512.776 49.111 514.474 49.5357 515.991 50.385C517.568 51.2343 518.812 52.3567 519.722 53.752C520.693 55.1473 521.178 56.664 521.178 58.302C521.178 60.122 520.662 61.7297 519.631 63.125C518.66 64.5203 517.386 65.6123 515.809 66.401C514.292 67.1897 512.654 67.584 510.895 67.584ZM528.367 104.894L529.368 117.543C528.033 118.574 526.304 119.363 524.181 119.909C522.058 120.455 520.116 120.728 518.357 120.728C514.292 120.728 510.986 120 508.438 118.544C505.951 117.088 504.131 115.116 502.978 112.629C501.825 110.142 501.249 107.351 501.249 104.257V85.693H486.689V120H467.488V85.693H461.755V74.409H467.488V71.77C467.488 68.4333 468.307 65.582 469.945 63.216C471.583 60.7893 473.858 58.939 476.77 57.665C479.682 56.3303 483.049 55.663 486.871 55.663C488.873 55.663 490.875 55.845 492.877 56.209C494.94 56.5123 496.729 56.9977 498.246 57.665L497.609 69.222C496.274 68.9187 494.97 68.7063 493.696 68.585C492.422 68.403 491.178 68.312 489.965 68.312C485.9 68.312 483.868 69.5557 483.868 72.043C483.868 72.8317 484.08 73.6203 484.505 74.409H520.45V101.618C520.45 103.013 520.844 104.105 521.633 104.894C522.482 105.622 523.483 105.986 524.636 105.986C525.849 105.986 527.093 105.622 528.367 104.894ZM556.509 120.728C551.413 120.728 547.015 119.727 543.314 117.725C539.614 115.723 536.762 112.993 534.76 109.535C532.758 106.016 531.757 101.982 531.757 97.432C531.757 92.9427 532.789 88.9083 534.851 85.329C536.914 81.7497 539.796 78.9287 543.496 76.866C547.258 74.8033 551.595 73.772 556.509 73.772C562.394 73.772 567.035 74.9853 570.432 77.412L568.43 89.788C566.914 89.1207 565.488 88.6657 564.153 88.423C562.819 88.1197 561.545 87.968 560.331 87.968C557.359 87.968 554.993 88.8173 553.233 90.516C551.535 92.154 550.685 94.3987 550.685 97.25C550.685 100.041 551.535 102.316 553.233 104.075C554.932 105.774 557.177 106.623 559.967 106.623C562.394 106.623 565.245 106.107 568.521 105.076L570.25 117.816C568.248 118.787 566.155 119.515 563.971 120C561.848 120.485 559.361 120.728 556.509 120.728ZM596.8 120.728C592.614 120.728 588.822 119.727 585.425 117.725C582.027 115.662 579.328 112.841 577.326 109.262C575.384 105.683 574.414 101.588 574.414 96.977C574.414 92.3663 575.384 88.332 577.326 84.874C579.328 81.416 582.027 78.7163 585.425 76.775C588.822 74.773 592.614 73.772 596.8 73.772C599.772 73.772 602.654 74.591 605.445 76.229C608.235 77.867 610.389 80.5667 611.906 84.328V74.409H630.834V120H611.724V111.537C610.268 114.51 608.326 116.785 605.9 118.362C603.473 119.939 600.44 120.728 596.8 120.728ZM602.715 106.35C605.202 106.35 607.325 105.47 609.085 103.711C610.844 101.891 611.724 99.6767 611.724 97.068C611.724 94.4593 610.844 92.336 609.085 90.698C607.325 88.9993 605.202 88.15 602.715 88.15C600.106 88.15 597.922 89.0297 596.163 90.789C594.403 92.5483 593.524 94.702 593.524 97.25C593.524 99.798 594.403 101.952 596.163 103.711C597.922 105.47 600.106 106.35 602.715 106.35ZM657.889 120.728C653.582 120.728 650.063 120 647.333 118.544C644.664 117.088 642.722 115.116 641.509 112.629C640.296 110.142 639.689 107.351 639.689 104.257V58.211L658.89 55.39V101.618C658.89 103.013 659.345 104.105 660.255 104.894C661.165 105.622 662.348 105.986 663.804 105.986C665.26 105.986 666.716 105.622 668.172 104.894L669.537 117.543C668.081 118.574 666.231 119.363 663.986 119.909C661.741 120.455 659.709 120.728 657.889 120.728Z" fill="black"/>
<path d="M337.98 153V128.232H346.584C350.184 128.232 353.112 128.748 355.368 129.78C357.648 130.812 359.316 132.24 360.372 134.064C361.452 135.888 361.992 138.012 361.992 140.436C361.992 144.396 360.684 147.48 358.068 149.688C355.476 151.896 351.528 153 346.224 153H337.98ZM345.936 146.7H348.24C350.16 146.7 351.588 146.124 352.524 144.972C353.46 143.796 353.928 142.26 353.928 140.364C353.928 138.612 353.472 137.208 352.56 136.152C351.672 135.072 350.232 134.532 348.24 134.532H345.936V146.7ZM375.926 148.248C376.622 148.248 377.354 148.176 378.122 148.032C378.914 147.888 379.718 147.624 380.534 147.24L381.398 151.884C380.51 152.34 379.538 152.688 378.482 152.928C377.45 153.168 376.262 153.288 374.918 153.288C372.494 153.288 370.454 152.892 368.798 152.1C367.166 151.308 365.93 150.216 365.09 148.824C364.25 147.432 363.83 145.824 363.83 144C363.83 142.128 364.274 140.496 365.162 139.104C366.074 137.712 367.286 136.632 368.798 135.864C370.31 135.096 371.978 134.712 373.802 134.712C376.514 134.712 378.59 135.564 380.03 137.268C381.47 138.948 382.19 141.348 382.19 144.468L371.462 145.836C372.254 147.444 373.742 148.248 375.926 148.248ZM370.886 142.524L376.538 141.336C376.442 140.568 376.178 140.004 375.746 139.644C375.314 139.26 374.774 139.068 374.126 139.068C373.166 139.068 372.398 139.404 371.822 140.076C371.27 140.724 370.958 141.54 370.886 142.524ZM388.874 153L382.574 134.964H390.926L394.058 145.764L397.118 134.964H403.706L397.622 153H388.874ZM416.285 148.248C416.981 148.248 417.713 148.176 418.481 148.032C419.273 147.888 420.077 147.624 420.893 147.24L421.757 151.884C420.869 152.34 419.897 152.688 418.841 152.928C417.809 153.168 416.621 153.288 415.277 153.288C412.853 153.288 410.813 152.892 409.157 152.1C407.525 151.308 406.289 150.216 405.449 148.824C404.609 147.432 404.189 145.824 404.189 144C404.189 142.128 404.633 140.496 405.521 139.104C406.433 137.712 407.645 136.632 409.157 135.864C410.669 135.096 412.337 134.712 414.161 134.712C416.873 134.712 418.949 135.564 420.389 137.268C421.829 138.948 422.549 141.348 422.549 144.468L411.821 145.836C412.613 147.444 414.101 148.248 416.285 148.248ZM411.245 142.524L416.897 141.336C416.801 140.568 416.537 140.004 416.105 139.644C415.673 139.26 415.133 139.068 414.485 139.068C413.525 139.068 412.757 139.404 412.181 140.076C411.629 140.724 411.317 141.54 411.245 142.524ZM432.15 153.288C430.446 153.288 429.054 153 427.974 152.424C426.918 151.848 426.15 151.068 425.67 150.084C425.19 149.1 424.95 147.996 424.95 146.772V128.556L432.546 127.44V145.728C432.546 146.28 432.726 146.712 433.086 147.024C433.446 147.312 433.914 147.456 434.49 147.456C435.066 147.456 435.642 147.312 436.218 147.024L436.758 152.028C436.182 152.436 435.45 152.748 434.562 152.964C433.674 153.18 432.87 153.288 432.15 153.288ZM447.85 153.288C445.81 153.288 444.01 152.892 442.45 152.1C440.89 151.308 439.666 150.216 438.778 148.824C437.914 147.408 437.482 145.788 437.482 143.964C437.482 142.092 437.926 140.472 438.814 139.104C439.726 137.712 440.962 136.632 442.522 135.864C444.082 135.096 445.87 134.712 447.886 134.712C449.95 134.712 451.762 135.108 453.322 135.9C454.882 136.668 456.094 137.748 456.958 139.14C457.822 140.508 458.254 142.116 458.254 143.964C458.254 145.812 457.81 147.444 456.922 148.86C456.058 150.252 454.846 151.344 453.286 152.136C451.726 152.904 449.914 153.288 447.85 153.288ZM447.922 147.888C448.906 147.888 449.71 147.528 450.334 146.808C450.982 146.064 451.306 145.116 451.306 143.964C451.306 142.812 450.994 141.876 450.37 141.156C449.746 140.412 448.954 140.04 447.994 140.04C446.962 140.04 446.122 140.412 445.474 141.156C444.85 141.876 444.538 142.812 444.538 143.964C444.538 145.116 444.85 146.064 445.474 146.808C446.122 147.528 446.938 147.888 447.922 147.888ZM468.548 158.688L460.952 159.804V134.964H468.44V138.888C469.064 137.4 469.916 136.332 470.996 135.684C472.1 135.036 473.24 134.712 474.416 134.712C476.096 134.712 477.596 135.108 478.916 135.9C480.26 136.668 481.316 137.736 482.084 139.104C482.876 140.472 483.272 142.068 483.272 143.892C483.272 145.716 482.876 147.336 482.084 148.752C481.316 150.168 480.26 151.284 478.916 152.1C477.596 152.892 476.096 153.288 474.416 153.288C472.976 153.288 471.776 152.976 470.816 152.352C469.856 151.728 469.1 150.828 468.548 149.652V158.688ZM472.076 147.6C473.108 147.6 473.972 147.252 474.668 146.556C475.364 145.86 475.712 145.008 475.712 144C475.712 142.992 475.364 142.14 474.668 141.444C473.972 140.748 473.108 140.4 472.076 140.4C471.092 140.4 470.252 140.736 469.556 141.408C468.86 142.056 468.512 142.896 468.512 143.928C468.512 144.96 468.86 145.836 469.556 146.556C470.252 147.252 471.092 147.6 472.076 147.6ZM497.18 148.248C497.876 148.248 498.608 148.176 499.376 148.032C500.168 147.888 500.972 147.624 501.788 147.24L502.652 151.884C501.764 152.34 500.792 152.688 499.736 152.928C498.704 153.168 497.516 153.288 496.172 153.288C493.748 153.288 491.708 152.892 490.052 152.1C488.42 151.308 487.184 150.216 486.344 148.824C485.504 147.432 485.084 145.824 485.084 144C485.084 142.128 485.528 140.496 486.416 139.104C487.328 137.712 488.54 136.632 490.052 135.864C491.564 135.096 493.232 134.712 495.056 134.712C497.768 134.712 499.844 135.564 501.284 137.268C502.724 138.948 503.444 141.348 503.444 144.468L492.716 145.836C493.508 147.444 494.996 148.248 497.18 148.248ZM492.14 142.524L497.792 141.336C497.696 140.568 497.432 140.004 497 139.644C496.568 139.26 496.028 139.068 495.38 139.068C494.42 139.068 493.652 139.404 493.076 140.076C492.524 140.724 492.212 141.54 492.14 142.524ZM505.952 153V134.964H513.44V139.464C513.92 137.832 514.664 136.632 515.672 135.864C516.704 135.096 517.928 134.712 519.344 134.712L520.244 141.084C519.668 141.012 519.104 140.976 518.552 140.976C515.216 140.976 513.548 142.344 513.548 145.08V153H505.952ZM527.85 153.288C526.77 153.288 525.678 153.18 524.574 152.964C523.47 152.748 522.474 152.448 521.586 152.064L522.63 147.528C523.182 147.816 523.938 148.068 524.898 148.284C525.858 148.476 526.71 148.572 527.454 148.572C528.654 148.572 529.254 148.248 529.254 147.6C529.254 147.288 529.062 147.06 528.678 146.916C528.318 146.772 527.838 146.652 527.238 146.556C526.662 146.436 526.038 146.292 525.366 146.124C524.694 145.932 524.058 145.656 523.458 145.296C522.882 144.912 522.402 144.372 522.018 143.676C521.658 142.98 521.478 142.068 521.478 140.94C521.478 139.044 522.222 137.532 523.71 136.404C525.222 135.276 527.286 134.712 529.902 134.712C530.91 134.712 531.846 134.784 532.71 134.928C533.598 135.072 534.438 135.372 535.23 135.828L534.474 140.22C533.202 139.692 531.87 139.428 530.478 139.428C529.59 139.428 528.942 139.5 528.534 139.644C528.15 139.788 527.958 140.028 527.958 140.364C527.958 140.628 528.15 140.832 528.534 140.976C528.918 141.12 529.41 141.264 530.01 141.408C530.634 141.528 531.282 141.708 531.954 141.948C532.626 142.164 533.262 142.476 533.862 142.884C534.486 143.292 534.99 143.844 535.374 144.54C535.758 145.212 535.95 146.088 535.95 147.168C535.95 149.088 535.242 150.588 533.826 151.668C532.41 152.748 530.418 153.288 527.85 153.288Z" fill="#141414"/>
</svg>
