<svg version="1.1" id="Layer_1" xmlns="http://www.w3.org/2000/svg" xmlns:xlink="http://www.w3.org/1999/xlink" x="0px" y="0px"
	 width="70" height="70" viewBox="0 0 512 512" enable-background="new 0 0 512 512" xml:space="preserve">
<path fill="#0192FD" opacity="1.000000" stroke="none" 
	d="
M512.768188,239.765289 
	C513.000000,241.388885 513.000000,242.777786 513.000000,244.583344 
	C510.959167,248.881989 512.207703,253.049896 512.077454,257.072845 
	C511.956482,260.808563 511.460419,264.610321 512.747681,268.661438 
	C513.000000,270.388885 513.000000,271.777802 513.000000,273.583344 
	C510.880798,276.375610 510.908966,278.890625 512.756348,281.753937 
	C513.000000,283.714355 513.000000,285.428711 513.000000,287.571533 
	C511.118225,292.547516 512.083618,297.417999 511.409821,302.111420 
	C509.526855,315.227478 507.090118,328.196289 501.836975,340.452179 
	C500.465332,343.652374 500.090149,347.198730 498.002747,350.493164 
	C494.736206,351.906403 492.611084,353.688110 493.042664,357.614349 
	C493.105591,358.147308 493.114807,358.360535 493.096375,358.886566 
	C492.981598,359.812653 492.850800,360.420746 492.858063,361.385986 
	C492.088959,366.224762 489.961914,370.157074 487.904907,374.166321 
	C474.050385,401.169342 456.124481,425.112610 433.906036,445.767151 
	C421.481720,457.316925 407.903717,467.378021 393.533051,476.455475 
	C379.285645,485.455048 364.144196,492.789032 348.484070,498.492950 
	C329.352081,505.461456 309.676666,511.208618 288.923462,511.660187 
	C284.502563,511.756409 279.974640,511.423645 275.292786,512.758301 
	C263.645782,513.000000 252.291550,513.000000 240.468658,513.000000 
	C235.787872,510.904480 231.195175,511.927551 226.833588,511.713013 
	C200.922485,510.438293 176.785461,502.925537 153.166733,492.640594 
	C140.640274,487.185852 128.855881,480.583801 117.122696,473.747406 
	C114.797867,472.392853 112.821617,470.639038 110.499374,468.701538 
	C109.679222,467.683136 109.216019,466.866364 108.377953,465.907440 
	C108.029709,465.469818 107.903465,465.285645 107.638199,464.802307 
	C106.454353,462.473724 104.784195,461.221130 102.297943,460.508362 
	C101.772102,460.340332 101.571465,460.242371 101.111778,459.932098 
	C100.205673,458.806580 99.435143,458.048157 98.018646,457.567108 
	C97.516907,457.295685 97.327438,457.165192 96.894974,456.788208 
	C95.475845,453.574249 92.941811,452.129669 89.961899,450.667450 
	C89.485260,450.331299 89.311020,450.173706 88.938049,449.726196 
	C86.038040,444.667084 82.064842,441.233643 77.029396,438.431519 
	C76.528633,438.136688 76.342407,437.995789 75.951920,437.571075 
	C71.720200,430.204285 65.645912,425.064819 59.067986,419.959534 
	C54.403339,416.420563 51.304058,411.998779 47.925922,407.689545 
	C42.777241,401.121735 38.403233,394.096863 34.425510,386.892578 
	C29.666342,378.273010 23.883347,370.025635 21.996017,359.677856 
	C22.655687,352.392700 19.341343,347.035004 14.975750,341.713501 
	C14.553708,340.980499 14.406852,340.521729 14.306902,339.682983 
	C14.875392,336.406830 14.722317,333.765808 11.338305,331.970093 
	C5.662024,319.945801 4.198067,307.323792 3.041358,294.258362 
	C3.676784,292.204285 4.666985,290.517365 2.707363,288.615906 
	C2.051014,284.822357 1.940907,281.330811 2.055176,277.452057 
	C3.631424,274.161346 2.131779,271.089172 2.598444,267.725586 
	C1.683580,257.883392 3.862642,248.408508 2.287847,238.572800 
	C1.831323,207.872314 8.759936,179.267014 22.598457,151.923004 
	C26.601574,149.255661 28.533989,145.761154 29.040859,141.074097 
	C28.938551,140.493439 28.888742,140.259644 28.824102,139.663666 
	C28.842506,139.061676 28.875746,138.821869 28.966888,138.222260 
	C33.601311,127.323097 39.945198,117.877045 46.479538,108.466179 
	C51.413189,101.360641 57.181427,94.974609 62.360382,88.098900 
	C63.944523,85.995758 65.950722,84.179321 68.467575,82.497818 
	C72.009567,81.971085 73.932533,79.896591 75.576080,76.958313 
	C75.860847,76.469955 75.997238,76.287323 76.408875,75.900520 
	C78.993752,74.516060 81.064713,73.134987 81.390076,69.845863 
	C85.670219,64.057594 90.551468,59.433067 96.487717,55.901424 
	C100.318069,53.622646 103.218636,50.146114 106.859985,47.498871 
	C113.607468,42.593479 120.689713,38.220081 127.781837,33.966217 
	C134.717560,29.806158 141.894943,25.856178 149.504135,22.887140 
	C155.218781,20.657335 160.881958,18.285614 166.464828,15.760523 
	C171.204437,13.616830 176.319595,12.854016 181.167450,11.064414 
	C195.607452,5.733849 210.680771,3.450534 226.022995,2.392481 
	C233.480789,1.878165 240.972488,2.715762 248.691589,1.244907 
	C257.020905,1.000000 265.041809,1.000000 273.531372,1.000000 
	C277.863831,3.158293 282.174408,2.116451 286.181061,2.243046 
	C304.244995,2.813801 321.498352,6.806334 338.620392,12.359504 
	C352.254028,16.781284 365.210846,22.476183 377.959961,28.916876 
	C385.383820,32.667297 392.403687,36.997326 399.682739,41.669224 
	C400.762238,42.785580 401.084015,43.947876 402.065796,45.049294 
	C402.515289,45.347599 402.704590,45.455086 403.163574,45.745991 
	C403.955170,46.311928 404.442261,46.740086 405.248596,47.300896 
	C405.681213,47.651714 405.841675,47.808086 406.192932,48.239120 
	C407.586945,50.493629 409.404968,51.677265 411.846954,52.574059 
	C412.372253,52.788937 412.568848,52.908352 413.004456,53.277245 
	C417.145721,57.745956 420.965118,62.064896 426.729126,64.557106 
	C427.263062,64.796097 427.461670,64.923676 427.901825,65.309883 
	C429.760254,69.988586 433.619843,72.103104 437.599792,74.555359 
	C438.352417,74.912766 438.717407,75.217033 439.234375,75.875343 
	C442.134308,82.234268 447.734222,85.906433 451.666748,90.960701 
	C453.255371,93.002487 454.482056,95.567131 457.597687,96.601967 
	C458.073944,96.971947 458.246857,97.141838 458.629730,97.608231 
	C460.684143,103.339516 464.241486,107.570244 468.651245,111.582260 
	C469.145203,111.888077 469.328308,112.031952 469.722412,112.452232 
	C470.467407,115.119904 471.157898,117.433899 473.344208,119.345444 
	C473.742279,119.717262 473.891022,119.876198 474.196564,120.318253 
	C474.835754,121.767754 475.314453,122.936417 476.611633,123.931297 
	C477.084808,124.214226 477.269226,124.342384 477.711121,124.699745 
	C478.121490,125.105965 478.274414,125.282982 478.618774,125.759277 
	C479.014038,126.489426 479.168304,126.937027 479.301605,127.755615 
	C479.289032,128.597412 479.007965,129.221176 479.232483,129.559387 
	C483.859467,136.530075 485.547546,145.071075 491.209778,151.862976 
	C491.481476,152.349258 491.553314,152.561035 491.622986,153.100952 
	C491.880310,153.764038 490.740448,153.936386 491.819122,154.449768 
	C492.279877,154.726059 492.437408,154.883896 492.732483,155.352539 
	C492.907318,158.783051 493.198975,161.755814 497.276917,162.926727 
	C501.032532,168.326950 502.000519,174.541382 503.978394,180.244949 
	C508.657654,193.738632 511.898590,207.711899 511.990479,222.550125 
	C511.953125,225.099152 510.003113,227.307007 512.232910,229.754425 
	C512.446228,233.213730 510.022675,236.412735 512.768188,239.765289 
z"/>
<path fill="transparent" opacity="1.000000" stroke="none" 
	d="
M70.389618,83.391617 
	C62.901665,91.381920 56.532032,99.836952 49.966049,108.160934 
	C44.659485,114.888283 41.141003,122.633995 35.860672,129.302170 
	C33.889950,131.790863 33.197502,135.291779 31.917377,138.636459 
	C31.737223,139.211304 31.537502,139.461365 31.152534,139.870453 
	C30.991665,140.048965 31.053757,140.048386 31.052155,140.017365 
	C29.506884,143.956253 26.964933,147.450806 25.372932,151.787720 
	C11.646816,178.768738 5.667024,207.425262 3.048254,237.393524 
	C2.714684,238.272369 2.245732,238.470093 1.338260,238.215027 
	C1.000000,160.403427 1.034316,82.806793 0.894031,5.210468 
	C0.887337,1.507781 1.776252,0.904805 5.282183,0.909863 
	C86.208893,1.026615 167.135803,1.000000 248.531342,1.000000 
	C249.856552,3.271674 248.138916,3.201367 246.875656,3.101988 
	C232.658661,1.983558 218.905304,5.665566 204.992569,7.395339 
	C197.229675,8.360500 189.638229,11.089602 182.113052,13.476319 
	C174.192383,15.988480 166.235168,18.463326 158.666458,21.990124 
	C151.654419,25.257524 144.596573,28.396675 137.658890,31.854681 
	C126.183678,37.574368 115.381744,44.388924 105.258125,52.016670 
	C97.800705,57.635548 89.953255,63.039001 83.414612,70.333511 
	C81.591225,72.830368 79.328979,74.489784 77.252792,76.804283 
	C77.023026,77.062988 77.005646,77.005318 77.034424,77.014191 
	C74.850243,78.995300 72.922859,81.263741 70.389618,83.391617 
z"/>
<path fill="transparent" opacity="1.000000" stroke="none" 
	d="
M5.143355,292.870972 
	C6.734485,305.722473 8.682918,318.134735 12.714705,330.476807 
	C15.323381,332.832977 15.417074,335.847595 16.137085,339.018860 
	C16.148493,339.666504 16.135199,339.922333 16.178555,340.370178 
	C18.638569,346.592590 22.016714,352.211884 24.024525,358.815125 
	C25.529551,365.501953 28.677036,371.127594 31.698420,376.733673 
	C35.697052,384.153015 39.852058,391.547058 44.647461,398.461212 
	C49.310284,405.184174 53.757004,412.145660 59.864929,418.239746 
	C65.515450,424.570892 71.109741,430.467407 76.795639,436.751221 
	C77.053642,436.987152 76.998512,437.001617 77.005653,436.973999 
	C80.945862,441.084717 85.708488,444.328369 89.777084,448.822449 
	C90.007378,449.075989 90.001442,448.998901 89.962891,449.001801 
	C92.746262,450.766266 95.032196,453.168579 97.613403,455.660583 
	C97.720940,455.974701 97.842354,456.081604 97.911392,456.123749 
	C99.350891,456.726929 100.607903,457.456024 101.798828,458.829315 
	C102.012535,459.059113 102.029907,458.985138 101.993027,458.976013 
	C104.103188,460.571136 106.515907,461.792969 108.795616,463.787659 
	C109.035934,464.023254 109.045883,463.960938 109.014435,463.958496 
	C109.753990,464.706482 110.889824,464.893524 111.833862,465.928833 
	C114.406441,470.020844 118.792091,471.014679 122.182144,473.417603 
	C130.368301,479.220276 139.339615,483.760162 148.342911,487.832153 
	C165.902420,495.773926 184.006607,502.867371 203.010620,506.318146 
	C214.363327,508.379669 225.838120,510.679565 237.500504,510.963867 
	C238.802353,510.995605 240.248474,510.796051 240.432114,512.718750 
	C161.738861,513.000000 83.477669,512.966553 5.216776,513.104553 
	C1.531800,513.111084 0.902780,512.247620 0.908288,508.724274 
	C1.028558,431.795410 1.000000,354.866364 1.000000,277.468658 
	C1.445346,276.612762 1.950870,276.503204 2.800648,276.967865 
	C3.370960,280.664612 3.657197,284.064850 4.044096,287.805481 
	C5.087178,289.449829 5.614172,290.855927 5.143355,292.870972 
z"/>
<path fill="transparent" opacity="1.000000" stroke="none" 
	d="
M438.279907,77.178268 
	C437.954712,76.631760 437.787262,76.398308 437.362854,76.115395 
	C434.213196,72.547096 430.029602,70.337875 427.155945,66.287239 
	C426.913513,66.043396 426.990051,66.005440 426.959717,66.035507 
	C421.949646,62.388210 417.125702,58.516850 412.225830,54.194145 
	C411.989685,53.942295 411.974396,54.011829 412.009094,54.019829 
	C409.893463,52.436554 407.348846,51.415718 405.196747,49.241776 
	C404.948059,49.016369 404.959595,49.041241 404.971130,49.048706 
	C404.266785,48.280231 403.149780,48.129150 402.190552,47.177177 
	C401.977539,46.953873 401.966339,47.020294 401.999756,47.024361 
	C401.153107,46.080463 399.710876,45.701664 399.079285,44.038864 
	C393.414917,41.317089 388.873291,37.060841 383.540619,34.728817 
	C376.538361,31.666658 370.474945,26.768751 362.910645,24.812141 
	C359.157593,23.841354 355.621063,21.860352 352.143250,20.037413 
	C346.237335,16.941730 339.777435,15.749537 333.440369,14.073510 
	C330.985596,13.424273 328.693207,12.181672 326.257019,11.438205 
	C310.043335,6.490187 293.291962,4.678632 276.516205,3.033928 
	C275.217621,2.906613 273.770447,3.201426 273.570740,1.283689 
	C352.259094,1.000000 430.518280,1.032876 508.777130,0.896734 
	C512.444946,0.890353 513.099365,1.729158 513.093262,5.269420 
	C512.969177,77.867012 513.000000,150.464874 513.000000,223.531342 
	C512.556396,224.387054 512.052429,224.496796 511.204102,224.034149 
	C510.343384,214.782364 507.788910,206.234818 505.811005,197.543991 
	C504.357330,191.156555 503.573547,184.542358 500.711456,178.654770 
	C498.517242,174.141098 497.617798,169.455276 496.435547,164.396942 
	C493.357727,162.003494 492.460266,158.989456 492.124817,155.302338 
	C491.998047,154.951569 491.988251,155.014801 492.020233,155.014679 
	C491.729004,154.773682 491.387177,154.562698 490.982300,154.079224 
	C490.935181,153.781128 490.916321,153.405655 490.874939,153.222305 
	C486.382538,145.090256 482.107697,137.050232 478.267761,128.427658 
	C477.982697,127.704567 477.688202,127.343361 477.128845,126.748398 
	C476.863983,126.514656 476.453888,126.457146 476.396271,126.258278 
	C476.338654,126.059410 476.143097,125.870193 476.047028,125.773865 
	C474.712524,124.482620 474.652863,122.592636 473.217834,121.154541 
	C473.011719,120.917007 472.994781,121.000465 473.036499,121.009026 
	C471.258057,118.842125 470.052856,116.349693 469.160004,113.302032 
	C469.045959,112.966576 469.005280,112.999290 469.021667,112.979996 
	C465.396240,110.919807 463.789642,107.162300 461.512421,103.980759 
	C460.352783,102.360649 459.065704,100.866768 457.433441,99.210938 
	C457.100006,98.835190 457.030731,98.679733 456.897827,98.277069 
	C450.870758,91.036819 445.063995,83.904243 438.279907,77.178268 
z"/>
<path fill="transparent" opacity="1.000000" stroke="none" 
	d="
M275.468658,513.000000 
	C274.607513,509.872986 277.080536,511.093079 278.346344,510.987640 
	C291.652100,509.879272 304.900970,508.087952 317.800049,504.796417 
	C332.495453,501.046539 346.949463,496.591797 360.913879,490.209290 
	C368.091034,486.928925 375.061310,483.051849 382.407959,480.003174 
	C388.365997,477.530701 393.971161,473.571716 399.302521,469.791290 
	C410.658386,461.738861 421.958405,453.516693 432.179688,443.981689 
	C443.086914,433.806763 453.132507,422.758942 462.094574,410.908936 
	C471.848572,398.011871 479.791229,383.847473 487.407440,369.565552 
	C488.858246,366.845032 489.727692,363.814545 490.909119,360.559631 
	C490.968140,359.768250 491.163696,359.472778 491.811829,359.157715 
	C492.054230,358.988403 491.991028,358.987244 491.996368,359.018402 
	C492.585999,355.904602 492.820312,352.612457 495.913300,350.156952 
	C498.830444,341.717499 501.930450,333.641113 503.998383,325.308533 
	C506.801331,314.014435 509.695007,302.699921 510.961884,291.078217 
	C511.117706,289.648560 510.607117,288.009552 512.702026,287.603271 
	C513.000000,361.597015 512.963745,435.194061 513.106384,508.790802 
	C513.113525,512.496521 512.219666,513.095276 508.716888,513.089966 
	C431.123810,512.972351 353.530548,513.000000 275.468658,513.000000 
z"/>
<path fill="#0098D3" opacity="1.000000" stroke="none" 
	d="
M1.000000,238.468658 
	C1.257798,238.776016 1.690889,238.890823 2.691310,238.090637 
	C5.772615,238.976303 5.146469,241.405640 4.972215,243.390656 
	C4.271728,251.370193 3.425034,259.333099 4.357622,267.669739 
	C3.451817,268.590851 2.639160,268.776154 1.365959,268.239685 
	C1.000000,258.312439 1.000000,248.624878 1.000000,238.468658 
z"/>
<path fill="#00A683" opacity="1.000000" stroke="none" 
	d="
M513.000000,268.531372 
	C511.456848,268.941010 511.100433,267.852417 511.099976,266.629913 
	C511.097473,260.037201 511.117737,253.444122 511.218048,246.852493 
	C511.225861,246.338333 511.907928,245.834473 512.638306,245.162903 
	C513.000000,252.687576 513.000000,260.375153 513.000000,268.531372 
z"/>
<path fill="#00A29A" opacity="1.000000" stroke="none" 
	d="
M1.000000,268.450012 
	C1.791296,267.985931 2.582592,267.971832 3.779214,267.977966 
	C3.817829,270.942657 6.145541,274.027588 3.403583,277.064667 
	C2.572451,276.929443 2.060177,276.594482 1.273952,276.629761 
	C1.000000,274.299988 1.000000,271.599976 1.000000,268.450012 
z"/>
<path fill="#00A685" opacity="1.000000" stroke="none" 
	d="
M513.000000,239.545898 
	C508.575653,237.575974 509.890320,234.300293 511.717041,230.614929 
	C511.947784,230.082565 512.119629,229.892624 512.645752,229.851349 
	C513.000000,233.030594 513.000000,236.061188 513.000000,239.545898 
z"/>
<path fill="#00A876" opacity="1.000000" stroke="none" 
	d="
M513.000000,281.555847 
	C509.367310,280.860962 509.163849,278.287292 512.698242,274.182678 
	C513.000000,276.370575 513.000000,278.741119 513.000000,281.555847 
z"/>
<path fill="#00A298" opacity="1.000000" stroke="none" 
	d="
M513.000000,229.571533 
	C512.791687,230.026489 512.583435,230.052963 512.075562,230.175964 
	C509.100128,228.738297 508.283478,226.761169 510.613708,223.923187 
	C511.430420,224.070450 511.940674,224.401932 512.725464,224.366699 
	C513.000000,225.714355 513.000000,227.428711 513.000000,229.571533 
z"/>
<path fill="#FAFDFF" opacity="1.000000" stroke="none" 
	d="
M206.390442,221.275604 
	C191.334259,224.215469 176.693222,226.945724 162.272644,230.878372 
	C153.040253,233.396133 146.111130,238.341293 141.085236,246.262436 
	C124.785110,271.952515 108.510231,297.658600 92.199677,323.342041 
	C86.945190,331.615997 81.634552,339.854706 76.288727,348.069916 
	C75.391388,349.448883 74.281929,350.727448 73.099380,351.876251 
	C69.394867,355.475037 63.780842,356.462463 60.298748,354.237549 
	C56.906456,352.070068 55.600677,346.375549 57.927494,341.581329 
	C63.303001,330.505615 68.230804,319.164307 74.884613,308.776215 
	C87.074409,289.745087 99.555977,270.901001 111.870522,251.949448 
	C113.467896,249.491135 116.363144,246.461365 114.287117,243.934143 
	C112.243004,241.445694 108.372513,242.832123 105.412659,243.936890 
	C99.486099,246.148956 93.566818,248.368347 87.387459,249.781082 
	C84.787590,250.375473 82.041779,250.913544 79.613289,249.522552 
	C73.739273,246.157990 73.618912,241.353821 79.471466,238.175125 
	C90.347336,232.268143 102.328369,229.215286 113.992180,225.372742 
	C117.934952,224.073837 121.904648,222.920425 125.750565,221.294861 
	C129.981522,219.506577 131.391006,216.658966 129.559082,212.601303 
	C128.065582,209.293228 129.654694,208.355850 132.313095,207.107330 
	C138.576538,204.165726 144.355011,207.413986 150.268784,208.183502 
	C165.897491,210.217117 181.316925,210.054779 196.902634,207.101318 
	C214.488403,203.768829 232.307465,201.994934 250.296707,202.184357 
	C259.208099,202.278183 267.699677,200.567032 273.676697,192.745758 
	C276.988098,188.412582 281.625702,185.667648 286.663635,183.766251 
	C297.185699,179.795044 306.071777,172.870834 315.971405,167.763672 
	C338.187866,156.302292 362.099030,150.086334 386.193665,144.342209 
	C390.866455,143.228226 395.560699,142.179352 400.177399,140.863113 
	C403.587830,139.890747 406.431458,140.630478 408.614227,143.230133 
	C412.767517,148.176727 418.044403,151.664322 423.580170,154.683029 
	C431.434082,158.965820 438.087097,164.610153 444.081146,171.150299 
	C445.248260,172.423767 446.621735,173.752213 445.353363,175.439941 
	C444.157196,177.031555 442.253540,176.475021 440.790924,175.688248 
	C439.205170,174.835205 437.506592,173.861053 436.401581,172.498306 
	C428.514832,162.771774 418.297821,162.011993 407.032959,164.301437 
	C389.426178,167.879791 372.423431,173.455917 355.505127,179.360458 
	C350.953735,180.948914 346.436096,182.777222 341.752350,183.817642 
	C324.279236,187.699005 310.105621,197.861923 295.519806,207.826126 
	C297.263611,209.145172 299.151978,210.440521 300.871735,211.930481 
	C301.732605,212.676300 302.417969,213.798203 302.002716,215.047531 
	C301.523438,216.489502 300.152893,216.144714 299.037079,216.276047 
	C295.118530,216.737244 291.482483,215.205139 287.757812,214.494049 
	C285.559052,214.074295 283.896332,214.354660 282.154327,215.481628 
	C274.328766,220.544296 266.196564,225.452286 260.012482,232.374588 
	C253.381439,239.797195 248.726074,248.757050 244.758148,257.961853 
	C241.999969,264.360321 238.770584,270.575195 239.587799,277.950928 
	C240.096100,282.538452 242.718170,284.692932 247.308258,283.798035 
	C255.825027,282.137573 262.821442,277.028381 270.386780,273.330017 
	C290.602814,263.447266 311.989014,257.938080 334.060699,254.517212 
	C342.048340,253.279221 349.138611,250.585007 352.938049,242.517685 
	C354.522003,239.154465 353.737000,237.138046 350.483185,235.800659 
	C344.670319,233.411453 338.447083,233.534653 332.381378,233.417191 
	C329.653015,233.364365 326.648621,234.256165 323.986664,233.705368 
	C317.647736,232.393799 311.432129,233.610626 305.175690,233.860489 
	C300.230560,234.057999 299.955811,231.025787 300.033630,227.333557 
	C300.117950,223.333618 301.846161,221.165207 305.968292,221.032181 
	C332.720520,220.168854 359.566315,220.905273 386.216217,219.312897 
	C408.190674,217.999878 429.354156,220.630066 450.693512,224.175339 
	C454.278625,224.770966 457.870270,225.397293 461.391357,226.279144 
	C463.196075,226.731140 465.026459,227.988358 464.550537,230.125763 
	C464.122345,232.048828 462.057739,231.143036 460.690735,231.278534 
	C454.932556,231.849274 449.140930,232.278214 443.558716,233.880554 
	C437.754425,235.546631 436.014160,239.460785 438.575012,244.960403 
	C439.623016,247.211105 441.047394,249.290359 442.353668,251.414948 
	C442.793915,252.130905 443.384888,252.783447 442.925018,253.664688 
	C442.334564,254.796234 441.221130,254.627731 440.286743,254.430359 
	C415.965881,249.292618 396.258453,259.907623 377.311951,272.943176 
	C362.907379,282.853851 348.322601,292.409363 331.755493,298.428741 
	C326.282074,300.417419 321.682892,303.663574 318.157837,308.228577 
	C312.544434,315.498108 305.443787,320.807617 297.358521,324.971252 
	C291.268982,328.107147 286.062897,332.563263 280.532776,336.525970 
	C277.076477,339.002686 273.309265,340.595184 269.175354,341.374146 
	C266.513672,341.875702 265.006439,341.025208 265.290955,337.977936 
	C265.588318,334.792725 265.983307,331.574097 268.111145,329.100922 
	C272.410492,324.103851 275.077698,317.536377 282.752411,315.820129 
	C285.818359,315.134521 288.257538,312.162476 285.649414,307.986511 
	C284.201965,305.668976 285.256775,303.156799 286.992310,301.100189 
	C289.881073,297.676941 292.757568,294.243317 295.651947,290.824799 
	C297.786072,288.304230 298.703430,285.498230 296.688843,282.617493 
	C294.752380,279.848419 292.243500,281.663483 289.917572,282.265869 
	C276.995880,285.612213 264.839325,291.071930 252.627853,296.253662 
	C246.458328,298.871582 241.391098,295.509521 235.818466,295.101074 
	C234.018005,294.969116 233.567474,292.857391 233.003311,291.282349 
	C229.182449,280.615448 230.645142,270.041626 233.769363,259.576782 
	C238.208099,244.708801 243.607712,230.248459 252.754807,217.486221 
	C253.203156,216.860657 253.311966,215.991699 253.751343,214.747818 
	C237.642212,215.600082 222.145279,217.759186 206.390442,221.275604 
z"/>
<path fill="#F7FBFF" opacity="1.000000" stroke="none" 
	d="
M231.950821,171.621964 
	C237.436752,171.438232 242.391525,171.754974 247.303879,172.749054 
	C249.897781,173.273972 252.685364,174.446472 252.857315,176.962845 
	C253.024979,179.416199 249.788666,179.685242 247.862411,180.008896 
	C240.527145,181.241318 233.100021,181.932587 225.771133,183.196625 
	C196.450439,188.253708 167.154907,193.456528 137.847183,198.588898 
	C131.602371,199.682495 125.411232,200.240112 119.736923,196.410767 
	C118.145111,195.336517 116.785957,194.223465 117.152985,192.011734 
	C117.514198,189.835052 119.483803,189.624664 120.935982,189.300903 
	C143.053482,184.369751 164.941605,178.256332 187.708008,176.676636 
	C197.095490,176.025269 206.118851,172.956253 215.513504,172.034409 
	C220.850937,171.510666 226.151657,171.873993 231.950821,171.621964 
z"/>
<path fill="#00AB66" opacity="1.000000" stroke="none" 
	d="
M478.018311,128.262939 
	C482.794128,135.987167 487.832977,143.635986 490.882507,152.668518 
	C489.452301,152.996613 488.840088,152.009949 488.320679,150.949036 
	C484.838989,143.837219 481.668793,136.566544 477.489288,129.809067 
	C477.313019,129.524124 477.657501,128.917084 478.018311,128.262939 
z"/>
<path fill="#00A974" opacity="1.000000" stroke="none" 
	d="
M438.151520,77.241142 
	C442.427155,78.181747 444.430084,82.181068 447.240662,85.148788 
	C450.781677,88.887779 454.469482,92.603851 456.809631,97.685524 
	C449.788086,91.982285 443.964752,84.823402 438.151520,77.241142 
z"/>
<path fill="#00AC61" opacity="1.000000" stroke="none" 
	d="
M77.104355,436.631683 
	C75.256546,437.270752 74.345306,435.934662 73.383530,434.855591 
	C68.801430,429.714661 63.824036,424.905762 60.080360,418.789917 
	C62.500027,418.258148 62.940578,420.533813 64.075272,421.733826 
	C68.553276,426.469666 72.813835,431.411072 77.104355,436.631683 
z"/>
<path fill="#00A588" opacity="1.000000" stroke="none" 
	d="
M24.258175,358.928192 
	C20.707628,353.564270 17.413628,347.917084 16.130318,340.980957 
	C21.213139,345.566406 22.551916,352.248047 24.258175,358.928192 
z"/>
<path fill="#00AC61" opacity="1.000000" stroke="none" 
	d="
M89.935089,448.741760 
	C84.763641,446.309753 80.312027,442.642456 77.015625,437.302124 
	C82.638191,439.262085 85.684082,444.469879 89.935089,448.741760 
z"/>
<path fill="#00A974" opacity="1.000000" stroke="none" 
	d="
M411.982483,54.292099 
	C417.605286,56.897530 422.563843,60.706009 426.890167,65.725983 
	C420.749847,63.821743 416.472321,59.088139 411.982483,54.292099 
z"/>
<path fill="#00AB66" opacity="1.000000" stroke="none" 
	d="
M457.275696,99.306572 
	C460.215179,99.514984 461.788086,101.845543 463.024841,104.243622 
	C464.585236,107.269127 467.054474,109.539696 469.003174,112.608116 
	C467.614716,113.245773 466.598419,112.800926 465.743896,111.546402 
	C463.011261,107.534576 460.177124,103.591881 457.275696,99.306572 
z"/>
<path fill="#00AF62" opacity="1.000000" stroke="none" 
	d="
M25.510071,152.005447 
	C24.424688,147.033936 28.239191,143.981842 30.713085,140.090912 
	C30.677464,144.560318 28.487463,148.342438 25.510071,152.005447 
z"/>
<path fill="#00A974" opacity="1.000000" stroke="none" 
	d="
M426.757294,66.382469 
	C430.924103,68.441376 434.679047,71.119034 437.108856,75.665985 
	C432.843750,73.831947 429.312012,70.742928 426.757294,66.382469 
z"/>
<path fill="#00A48F" opacity="1.000000" stroke="none" 
	d="
M495.814178,349.968292 
	C495.006012,352.841797 493.821777,355.775574 492.319611,358.879456 
	C490.740479,355.125763 491.561737,351.995270 495.814178,349.968292 
z"/>
<path fill="#00A589" opacity="1.000000" stroke="none" 
	d="
M491.860382,155.285995 
	C494.235718,157.323502 494.477142,160.650085 496.111572,163.730225 
	C491.603882,162.918823 491.227325,159.500000 491.860382,155.285995 
z"/>
<path fill="#00AC61" opacity="1.000000" stroke="none" 
	d="
M97.687042,455.645813 
	C94.186264,455.079102 92.597656,451.857819 90.042969,449.326996 
	C93.310539,450.117065 95.881783,452.227295 97.687042,455.645813 
z"/>
<path fill="#00AF58" opacity="1.000000" stroke="none" 
	d="
M70.433807,83.569702 
	C71.205139,80.464218 73.548759,78.525734 76.709023,77.024986 
	C76.270950,80.464989 73.866539,82.348007 70.433807,83.569702 
z"/>
<path fill="#00A588" opacity="1.000000" stroke="none" 
	d="
M16.426449,339.104004 
	C14.207633,337.175415 14.261765,334.107239 12.921354,331.190735 
	C17.012596,332.086914 16.176813,335.756470 16.426449,339.104004 
z"/>
<path fill="#00AB66" opacity="1.000000" stroke="none" 
	d="
M468.997070,113.288651 
	C471.259277,114.918724 472.078064,117.632309 473.056213,120.644226 
	C470.703247,119.105255 468.324463,117.195084 468.997070,113.288651 
z"/>
<path fill="#00AF58" opacity="1.000000" stroke="none" 
	d="
M77.381744,77.135452 
	C77.545143,73.830597 79.955368,72.299080 82.873383,70.739410 
	C83.059036,74.144180 80.094772,75.426056 77.381744,77.135452 
z"/>
<path fill="#00AC61" opacity="1.000000" stroke="none" 
	d="
M109.030914,463.678680 
	C106.161682,463.476379 103.652672,462.354370 102.052528,459.308228 
	C104.930000,459.423401 107.013954,461.320465 109.030914,463.678680 
z"/>
<path fill="#00A974" opacity="1.000000" stroke="none" 
	d="
M404.922363,49.365479 
	C407.594879,49.902138 410.280029,50.726734 411.945038,53.682663 
	C408.998077,53.689243 406.905273,51.771713 404.922363,49.365479 
z"/>
<path fill="#00A396" opacity="1.000000" stroke="none" 
	d="
M5.360490,293.117462 
	C3.504325,292.100281 4.182098,290.392242 4.069878,288.522156 
	C6.521754,289.175507 7.404723,290.669250 5.360490,293.117462 
z"/>
<path fill="#00AB66" opacity="1.000000" stroke="none" 
	d="
M473.019562,121.266045 
	C475.581268,121.119026 475.681458,123.153015 475.994629,125.337067 
	C474.056427,124.985474 473.758270,123.144569 473.019562,121.266045 
z"/>
<path fill="#00AC61" opacity="1.000000" stroke="none" 
	d="
M102.016365,458.704712 
	C100.224648,459.159302 99.330589,457.792053 98.107162,456.461670 
	C99.727257,456.153839 101.243248,456.568695 102.016365,458.704712 
z"/>
<path fill="#00A974" opacity="1.000000" stroke="none" 
	d="
M398.972229,44.149361 
	C399.881073,44.675388 401.610870,44.686535 402.014404,46.680733 
	C400.466919,46.877300 398.965546,46.649078 398.972229,44.149361 
z"/>
<path fill="#00A974" opacity="1.000000" stroke="none" 
	d="
M402.015991,47.297985 
	C403.199829,46.905697 404.118347,47.458382 404.911194,48.728565 
	C403.732758,49.151848 402.708832,48.779617 402.015991,47.297985 
z"/>
<path fill="#00AC61" opacity="1.000000" stroke="none" 
	d="
M111.958931,465.841675 
	C110.842430,466.072296 109.860619,465.589966 109.066246,464.283691 
	C110.164299,464.072174 111.231613,464.402679 111.958931,465.841675 
z"/>
<path fill="#00A589" opacity="1.000000" stroke="none" 
	d="
M490.796326,153.975494 
	C491.249115,154.006149 491.563049,154.231171 491.964600,154.735382 
	C491.499237,154.878418 490.668976,155.200089 490.796326,153.975494 
z"/>
<path fill="#00A48F" opacity="1.000000" stroke="none" 
	d="
M491.820374,359.002075 
	C491.861969,359.307587 491.669708,359.626770 491.215210,360.069092 
	C490.316467,359.343506 490.899109,359.151398 491.820374,359.002075 
z"/>
<path fill="#00AF62" opacity="1.000000" stroke="none" 
	d="
M31.264620,139.998886 
	C31.135075,139.742386 31.278484,139.435806 31.667225,139.035492 
	C31.787561,139.277451 31.662569,139.613129 31.264620,139.998886 
z"/>
<path fill="#00AB66" opacity="1.000000" stroke="none" 
	d="
M476.370453,126.184723 
	C476.547913,126.001526 476.712311,126.062988 476.847900,126.379227 
	C476.679504,126.515190 476.525604,126.446991 476.370453,126.184723 
z"/>
</svg>
