<svg width="206" height="208" viewBox="0 0 206 208" fill="none" xmlns="http://www.w3.org/2000/svg">
<rect width="206" height="208" rx="24" fill="#0091FF"/>
<g filter="url(#filter0_d_8_28)">
<path d="M165.563 48.1241C166.226 48.7988 166.889 49.4736 167.572 50.1687C168.304 50.9069 169.037 51.6451 169.792 52.4056C173.497 56.3484 177.16 60.343 180.764 64.4333C180.407 65.3353 180.049 66.2373 179.681 67.1667C176.984 66.5584 175.525 65.9904 173.428 63.6899C168.553 59.6582 162.429 61.8977 156.951 63.0667C152.176 64.6321 147.536 66.5264 142.894 68.6334C140.836 69.5647 138.768 70.4548 136.697 71.3414C129.656 74.4607 123.744 77.5313 117.984 83.5667C118.519 86.2727 118.519 86.2727 119.066 89.0333C117.816 88.8642 116.566 88.6951 115.277 88.5208C110.275 88.5432 107.499 90.7402 103.718 94.7189C98.434 101.461 93.0879 112.172 93.0879 121.833C98.4006 121.062 102.669 118.84 107.43 115.94C114.835 111.58 122.093 109.068 130.145 107.372C134.774 106.469 134.774 106.469 138.017 102.545C138.192 101.694 138.368 100.843 138.549 99.9667C130.414 98.8686 130.414 98.8686 122.246 98.6854C119.066 98.6 119.066 98.6 116.901 95.8667C117.307 92.9625 117.307 92.9625 117.984 90.4C122.302 88.6623 126.719 88.6503 131.209 88.4568C132.083 88.417 132.956 88.3773 133.856 88.3364C136.683 88.2154 139.51 88.1092 142.338 88.0083C143.77 87.9557 143.77 87.9557 145.23 87.902C178.272 86.7767 178.272 86.7767 188.341 93.1333C187.983 94.4863 187.626 95.8393 187.258 97.2333C184.401 97.6843 181.543 98.1353 178.599 98.6C177.412 103.096 177.733 105.041 178.599 109.533C177.237 109.421 175.875 109.308 174.472 109.192C162.024 109.362 152.251 118.368 142.084 126.451C138.539 129.25 134.966 131.72 131.175 133.963C127.002 136.467 124.439 139.447 121.231 143.7C111.21 153.278 111.21 153.278 106.077 156C103.641 155.488 103.641 155.488 101.747 154.633C103.854 147.353 105.539 144.452 110.407 139.6C111.125 136.205 111.125 136.205 111.489 132.767C112.538 130.913 113.615 129.085 114.736 127.3C114.736 126.398 114.736 125.496 114.736 124.567C113.614 125.044 112.493 125.522 111.337 126.013C109.854 126.642 108.371 127.27 106.889 127.898C106.151 128.212 105.412 128.527 104.652 128.851C94.8372 133.002 94.8372 133.002 91.2613 131.742C88.7582 130.033 88.7582 130.033 87.6758 125.933C86.6935 112.29 90.9181 100.543 96.3352 89.0333C85.4504 90.7733 74.5564 92.5428 63.8626 95.6958C62.5231 96.0869 61.1837 96.478 59.8036 96.881C52.647 100.378 49.2304 108.152 45.3262 116.025C44.282 118.095 43.2376 120.164 42.1931 122.234C41.6621 123.293 41.131 124.353 40.5838 125.444C37.9661 130.662 35.3231 135.859 32.6755 141.052C32.2086 141.977 31.7417 142.903 31.2606 143.856C28.8318 148.627 26.3312 153.333 23.7329 157.959C23.231 158.86 22.7291 159.761 22.212 160.69C20.2811 163.204 18.9414 163.679 16.2363 164.2C14.4773 161.979 14.4773 161.979 12.989 158.733C14.292 152.114 16.7645 146.345 19.4159 140.454C20.0427 139.049 20.0427 139.049 20.6822 137.616C24.4297 129.378 28.605 121.563 32.967 113.826C35.0408 110.136 36.744 107.021 37.8846 102.7C36.5674 103.377 35.2503 104.053 33.8932 104.75C30.4007 106.397 27.5805 107.5 23.8132 106.8C23.0988 105.898 22.3844 104.996 21.6484 104.067C21.6484 102.714 21.6484 101.361 21.6484 99.9667C27.8166 95.7731 33.7831 93.029 40.5484 90.7043C43.5447 89.3121 43.5447 89.3121 44.7597 85.4405C44.9913 84.3711 45.2229 83.3018 45.4615 82.2C46.4161 82.2215 46.4161 82.2215 47.3899 82.2434C59.0033 82.4693 70.2579 82.466 81.7479 80.15C86.948 79.2057 92.1453 78.9426 97.3922 78.7033C101.049 78.0292 103.061 76.6374 106.077 74C106.994 73.2522 106.994 73.2522 107.929 72.4892C108.523 72.0012 109.118 71.5132 109.73 71.0104C111.393 69.7172 113.063 68.4378 114.736 67.1667C115.848 66.314 116.96 65.4613 118.106 64.5828C129.361 56.3096 141.124 52.0143 153.703 48.0333C154.461 47.7823 155.219 47.5312 156 47.2726C159.532 46.2199 162.32 45.8925 165.563 48.1241Z" fill="white"/>
<path d="M103.912 78.1C103.912 80.8333 103.912 80.8333 101.883 83.5667C100.744 84.9197 100.744 84.9197 99.5824 86.3C98.868 87.202 98.1536 88.104 97.4176 89.0333C94.7656 89.5152 92.1683 89.8622 89.5024 90.1438C81.8312 91.1353 74.3599 92.7776 66.8393 94.9271C65.3903 95.3137 65.3903 95.3137 63.9121 95.7082C54.2379 98.5898 50.3834 105.827 45.3262 116.025C44.282 118.095 43.2376 120.164 42.1931 122.234C41.6621 123.293 41.131 124.353 40.5838 125.444C37.9661 130.662 35.3231 135.859 32.6755 141.052C32.2086 141.977 31.7417 142.903 31.2606 143.856C28.8318 148.627 26.3312 153.333 23.7329 157.959C23.231 158.86 22.7291 159.761 22.212 160.69C20.2811 163.204 18.9414 163.679 16.2363 164.2C14.4773 161.979 14.4773 161.979 12.989 158.733C14.292 152.114 16.7645 146.345 19.4159 140.454C20.0427 139.049 20.0427 139.049 20.6822 137.616C24.4297 129.378 28.605 121.563 32.967 113.826C35.0408 110.136 36.744 107.021 37.8846 102.7C36.5675 103.377 35.2503 104.053 33.8932 104.75C30.4007 106.397 27.5805 107.5 23.8132 106.8C23.0988 105.898 22.3844 104.996 21.6484 104.067C21.6484 102.714 21.6484 101.361 21.6484 99.9667C27.8166 95.7731 33.7831 93.029 40.5484 90.7043C43.5447 89.3121 43.5447 89.3121 44.7597 85.4405C44.9913 84.3711 45.2229 83.3018 45.4615 82.2C46.4161 82.2215 46.4161 82.2215 47.3899 82.2434C59.0023 82.4693 70.2473 82.4393 81.7394 80.166C89.0563 78.8093 96.5143 78.1 103.912 78.1Z" fill="white"/>
<path d="M98.5 65.8C96.1182 69.257 94.5152 70.4837 90.9477 71.2436C90.0873 71.4349 89.227 71.6261 88.3407 71.8231C87.4138 72.0112 86.487 72.1993 85.5321 72.3931C84.5722 72.5996 83.6123 72.8062 82.6233 73.019C80.5908 73.4527 78.5572 73.8784 76.5226 74.2966C73.4295 74.9338 70.3405 75.5978 67.2515 76.2662C65.2723 76.6851 63.2928 77.1025 61.313 77.5181C59.9393 77.8127 59.9393 77.8127 58.5377 78.1132C53.0238 79.2338 47.8015 79.8329 42.2143 79.4667C40.0495 77.4167 40.0495 77.4167 38.967 75.3667C39.3242 74.4647 39.6814 73.5627 40.0495 72.6333C42.2172 71.7391 42.2172 71.7391 45.0683 70.9677C46.632 70.5388 46.632 70.5388 48.2273 70.1012C49.3462 69.8093 50.465 69.5174 51.6178 69.2167C53.3212 68.7643 53.3212 68.7643 55.059 68.3028C89.849 59.215 89.849 59.215 98.5 65.8Z" fill="white"/>
<path d="M94.1703 108.167C93.8131 111.324 93.4559 114.481 93.0879 117.733C92.7307 116.831 92.3735 115.929 92.0055 115C90.9339 115.676 90.9339 115.676 89.8407 116.367C89.3998 119.539 89.0349 122.731 88.7582 125.933C88.401 125.933 88.0438 125.933 87.6758 125.933C87.3578 113.887 87.3578 113.887 89.8407 109.533C92.0055 108.167 92.0055 108.167 94.1703 108.167Z" fill="white"/>
</g>
<defs>
<filter id="filter0_d_8_28" x="-4" y="33" width="205" height="172" filterUnits="userSpaceOnUse" color-interpolation-filters="sRGB">
<feFlood flood-opacity="0" result="BackgroundImageFix"/>
<feColorMatrix in="SourceAlpha" type="matrix" values="0 0 0 0 0 0 0 0 0 0 0 0 0 0 0 0 0 0 127 0" result="hardAlpha"/>
<feOffset dy="4"/>
<feGaussianBlur stdDeviation="2"/>
<feComposite in2="hardAlpha" operator="out"/>
<feColorMatrix type="matrix" values="0 0 0 0 0 0 0 0 0 0 0 0 0 0 0 0 0 0 0.25 0"/>
<feBlend mode="normal" in2="BackgroundImageFix" result="effect1_dropShadow_8_28"/>
<feBlend mode="normal" in="SourceGraphic" in2="effect1_dropShadow_8_28" result="shape"/>
</filter>
</defs>
</svg>
