<svg width="200" height="197" viewBox="0 0 200 197" fill="none" xmlns="http://www.w3.org/2000/svg">
<ellipse cx="100" cy="98.1308" rx="100" ry="98.1308" fill="#0091FF"/>
<g filter="url(#filter0_d_8_28)">
<path d="M168.563 36.1241C169.226 36.7988 169.889 37.4736 170.572 38.1687C171.304 38.9069 172.037 39.6451 172.792 40.4056C176.497 44.3484 180.16 48.343 183.764 52.4333C183.407 53.3353 183.049 54.2373 182.681 55.1667C179.984 54.5584 178.525 53.9904 176.428 51.6899C171.553 47.6582 165.429 49.8977 159.951 51.0667C155.176 52.6321 150.536 54.5264 145.894 56.6334C143.836 57.5647 141.768 58.4548 139.697 59.3414C132.656 62.4607 126.744 65.5313 120.984 71.5667C121.519 74.2727 121.519 74.2727 122.066 77.0333C120.816 76.8642 119.566 76.6951 118.277 76.5208C113.275 76.5432 110.499 78.7402 106.718 82.7189C101.434 89.4615 96.0879 100.172 96.0879 109.833C101.401 109.062 105.669 106.84 110.43 103.94C117.835 99.5798 125.093 97.0684 133.145 95.3722C137.774 94.4689 137.774 94.4689 141.017 90.5452C141.192 89.6943 141.368 88.8434 141.549 87.9667C133.414 86.8686 133.414 86.8686 125.246 86.6854C122.066 86.6 122.066 86.6 119.901 83.8667C120.307 80.9625 120.307 80.9625 120.984 78.4C125.302 76.6623 129.719 76.6503 134.209 76.4568C135.083 76.417 135.956 76.3773 136.856 76.3364C139.683 76.2154 142.51 76.1092 145.338 76.0083C146.77 75.9557 146.77 75.9557 148.23 75.902C181.272 74.7767 181.272 74.7767 191.341 81.1333C190.983 82.4863 190.626 83.8393 190.258 85.2333C187.401 85.6843 184.543 86.1353 181.599 86.6C180.412 91.096 180.733 93.0412 181.599 97.5333C180.237 97.4206 178.875 97.3078 177.472 97.1917C165.024 97.362 155.251 106.368 145.084 114.451C141.539 117.25 137.966 119.72 134.175 121.963C130.002 124.467 127.439 127.447 124.231 131.7C114.21 141.278 114.21 141.278 109.077 144C106.641 143.488 106.641 143.488 104.747 142.633C106.854 135.353 108.539 132.452 113.407 127.6C114.125 124.205 114.125 124.205 114.489 120.767C115.538 118.913 116.615 117.085 117.736 115.3C117.736 114.398 117.736 113.496 117.736 112.567C116.614 113.044 115.493 113.522 114.337 114.013C112.854 114.642 111.371 115.27 109.889 115.898C109.151 116.212 108.412 116.527 107.652 116.851C97.8372 121.002 97.8372 121.002 94.2613 119.742C91.7582 118.033 91.7582 118.033 90.6758 113.933C89.6935 100.29 93.9181 88.5428 99.3352 77.0333C88.4504 78.7733 77.5564 80.5428 66.8626 83.6958C65.5231 84.0869 64.1837 84.478 62.8036 84.881C55.647 88.3781 52.2304 96.1519 48.3262 104.025C47.282 106.095 46.2376 108.164 45.1931 110.234C44.6621 111.293 44.131 112.353 43.5838 113.444C40.9661 118.662 38.3231 123.859 35.6755 129.052C35.2086 129.977 34.7417 130.903 34.2606 131.856C31.8318 136.627 29.3312 141.333 26.7329 145.959C26.231 146.86 25.7291 147.761 25.212 148.69C23.2811 151.204 21.9414 151.679 19.2363 152.2C17.4773 149.979 17.4773 149.979 15.989 146.733C17.292 140.114 19.7645 134.345 22.4159 128.454C23.0427 127.049 23.0427 127.049 23.6822 125.616C27.4297 117.378 31.605 109.563 35.967 101.826C38.0408 98.1359 39.744 95.0206 40.8846 90.7C39.5674 91.3765 38.2503 92.053 36.8932 92.75C33.4007 94.3968 30.5805 95.4995 26.8132 94.8C26.0988 93.898 25.3844 92.996 24.6484 92.0667C24.6484 90.7137 24.6484 89.3607 24.6484 87.9667C30.8166 83.7731 36.7831 81.029 43.5484 78.7043C46.5447 77.3121 46.5447 77.3121 47.7597 73.4405C47.9913 72.3711 48.2229 71.3018 48.4615 70.2C49.4161 70.2215 49.4161 70.2215 50.3899 70.2434C62.0033 70.4693 73.2579 70.466 84.7479 68.15C89.948 67.2057 95.1453 66.9426 100.392 66.7033C104.049 66.0292 106.061 64.6374 109.077 62C109.994 61.2522 109.994 61.2522 110.929 60.4892C111.523 60.0012 112.118 59.5132 112.73 59.0104C114.393 57.7172 116.063 56.4378 117.736 55.1667C118.848 54.314 119.96 53.4613 121.106 52.5828C132.361 44.3096 144.124 40.0143 156.703 36.0333C157.461 35.7823 158.219 35.5312 159 35.2726C162.532 34.2199 165.32 33.8925 168.563 36.1241Z" fill="white"/>
<path d="M106.912 66.1C106.912 68.8333 106.912 68.8333 104.883 71.5667C103.744 72.9197 103.744 72.9197 102.582 74.3C101.868 75.202 101.154 76.104 100.418 77.0333C97.7656 77.5152 95.1683 77.8622 92.5024 78.1438C84.8312 79.1353 77.3599 80.7776 69.8393 82.9271C68.3903 83.3137 68.3903 83.3137 66.9121 83.7082C57.2379 86.5898 53.3834 93.8266 48.3262 104.025C47.282 106.095 46.2376 108.164 45.1931 110.234C44.6621 111.293 44.131 112.353 43.5838 113.444C40.9661 118.662 38.3231 123.859 35.6755 129.052C35.2086 129.977 34.7417 130.903 34.2606 131.856C31.8318 136.627 29.3312 141.333 26.7329 145.959C26.231 146.86 25.7291 147.761 25.212 148.69C23.2811 151.204 21.9414 151.679 19.2363 152.2C17.4773 149.979 17.4773 149.979 15.989 146.733C17.292 140.114 19.7645 134.345 22.4159 128.454C23.0427 127.049 23.0427 127.049 23.6822 125.616C27.4297 117.378 31.605 109.563 35.967 101.826C38.0408 98.1359 39.744 95.0206 40.8846 90.7C39.5675 91.3765 38.2503 92.053 36.8932 92.75C33.4007 94.3968 30.5805 95.4995 26.8132 94.8C26.0988 93.898 25.3844 92.996 24.6484 92.0667C24.6484 90.7137 24.6484 89.3607 24.6484 87.9667C30.8166 83.7731 36.7831 81.029 43.5484 78.7043C46.5447 77.3121 46.5447 77.3121 47.7597 73.4405C47.9913 72.3711 48.2229 71.3018 48.4615 70.2C49.4161 70.2215 49.4161 70.2215 50.3899 70.2434C62.0023 70.4693 73.2473 70.4393 84.7394 68.166C92.0563 66.8093 99.5143 66.1 106.912 66.1Z" fill="white"/>
<path d="M101.5 53.8C99.1182 57.257 97.5152 58.4837 93.9477 59.2436C93.0873 59.4349 92.227 59.6261 91.3407 59.8231C90.4138 60.0112 89.487 60.1993 88.5321 60.3931C87.5722 60.5996 86.6123 60.8062 85.6233 61.019C83.5908 61.4527 81.5572 61.8784 79.5226 62.2966C76.4295 62.9338 73.3405 63.5978 70.2515 64.2662C68.2723 64.6851 66.2928 65.1025 64.313 65.5181C62.9393 65.8127 62.9393 65.8127 61.5377 66.1132C56.0238 67.2338 50.8015 67.8329 45.2143 67.4667C43.0495 65.4167 43.0495 65.4167 41.967 63.3667C42.3242 62.4647 42.6814 61.5627 43.0495 60.6333C45.2172 59.7391 45.2172 59.7391 48.0683 58.9677C49.632 58.5388 49.632 58.5388 51.2273 58.1012C52.3462 57.8093 53.465 57.5174 54.6178 57.2167C56.3212 56.7643 56.3212 56.7643 58.059 56.3028C92.849 47.215 92.849 47.215 101.5 53.8Z" fill="white"/>
<path d="M97.1703 96.1667C96.8131 99.3237 96.4559 102.481 96.0879 105.733C95.7307 104.831 95.3735 103.929 95.0055 103C93.9339 103.676 93.9339 103.676 92.8407 104.367C92.3998 107.539 92.0349 110.731 91.7582 113.933C91.401 113.933 91.0438 113.933 90.6758 113.933C90.3578 101.887 90.3578 101.887 92.8407 97.5333C95.0055 96.1667 95.0055 96.1667 97.1703 96.1667Z" fill="white"/>
</g>
<defs>
<filter id="filter0_d_8_28" x="-1" y="21" width="205" height="172" filterUnits="userSpaceOnUse" color-interpolation-filters="sRGB">
<feFlood flood-opacity="0" result="BackgroundImageFix"/>
<feColorMatrix in="SourceAlpha" type="matrix" values="0 0 0 0 0 0 0 0 0 0 0 0 0 0 0 0 0 0 127 0" result="hardAlpha"/>
<feOffset dy="4"/>
<feGaussianBlur stdDeviation="2"/>
<feComposite in2="hardAlpha" operator="out"/>
<feColorMatrix type="matrix" values="0 0 0 0 0 0 0 0 0 0 0 0 0 0 0 0 0 0 0.25 0"/>
<feBlend mode="normal" in2="BackgroundImageFix" result="effect1_dropShadow_8_28"/>
<feBlend mode="normal" in="SourceGraphic" in2="effect1_dropShadow_8_28" result="shape"/>
</filter>
</defs>
</svg>
