<svg width="63" height="20" viewBox="0 0 63 20" fill="none" xmlns="http://www.w3.org/2000/svg">
<rect width="63" height="20" rx="2" fill="#00AAFF"/>
<ellipse cx="9.5" cy="10.3785" rx="6.5" ry="6.37851" fill="#0091FF"/>
<g clip-path="url(#clip0_22_11)">
<path d="M13.9566 6.34804C13.9997 6.3919 14.0427 6.43576 14.0871 6.48095C14.1347 6.52893 14.1823 6.57691 14.2314 6.62634C14.4723 6.88263 14.7104 7.14228 14.9446 7.40815C14.9214 7.46678 14.8982 7.52541 14.8742 7.58581C14.6989 7.54628 14.6041 7.50935 14.4678 7.35983C14.1509 7.09776 13.7528 7.24333 13.3967 7.31931C13.0864 7.42107 12.7848 7.54419 12.4831 7.68115C12.3493 7.74168 12.2149 7.79954 12.0803 7.85717C11.6226 8.05992 11.2383 8.25952 10.8639 8.65181C10.8987 8.8277 10.8987 8.8277 10.9342 9.00715C10.853 8.99615 10.7717 8.98516 10.688 8.97384C10.3628 8.97529 10.1824 9.11809 9.9366 9.37671C9.59317 9.81498 9.24567 10.5112 9.24567 11.1391C9.591 11.089 9.86843 10.9446 10.1779 10.7561C10.6592 10.4727 11.131 10.3094 11.6544 10.1992C11.9552 10.1405 11.9552 10.1405 12.166 9.88542C12.1775 9.83011 12.1889 9.7748 12.2007 9.71782C11.6719 9.64644 11.6719 9.64644 11.1409 9.63453C10.9342 9.62898 10.9342 9.62898 10.7935 9.45131C10.8199 9.26254 10.8199 9.26254 10.8639 9.09598C11.1446 8.98303 11.4317 8.98225 11.7236 8.96967C11.7803 8.96709 11.8371 8.96451 11.8956 8.96184C12.0794 8.95398 12.2631 8.94708 12.4469 8.94052C12.54 8.9371 12.54 8.9371 12.6349 8.93361C14.7826 8.86046 14.7826 8.86046 15.4371 9.27365C15.4139 9.36159 15.3907 9.44954 15.3667 9.54015C15.181 9.56946 14.9953 9.59878 14.8039 9.62898C14.7267 9.92122 14.7476 10.0477 14.8039 10.3396C14.7154 10.3323 14.6268 10.325 14.5356 10.3174C13.7265 10.3285 13.0913 10.9139 12.4304 11.4393C12.2 11.6213 11.9678 11.7818 11.7214 11.9275C11.4501 12.0904 11.2835 12.2841 11.075 12.5605C10.4236 13.183 10.4236 13.183 10.09 13.36C9.93165 13.3267 9.93165 13.3267 9.80853 13.2712C9.94547 12.7979 10.055 12.6093 10.3714 12.294C10.4181 12.0733 10.4181 12.0733 10.4417 11.8498C10.5099 11.7293 10.5799 11.6105 10.6528 11.4945C10.6528 11.4359 10.6528 11.3772 10.6528 11.3168C10.5799 11.3478 10.507 11.3789 10.4318 11.4109C10.3355 11.4517 10.2391 11.4925 10.1427 11.5333C10.0947 11.5538 10.0468 11.5742 9.99734 11.5953C9.35938 11.8651 9.35938 11.8651 9.12694 11.7832C8.96424 11.6722 8.96424 11.6722 8.89389 11.4057C8.83003 10.5188 9.10464 9.75526 9.45674 9.00715C8.74923 9.12024 8.04112 9.23526 7.34603 9.44021C7.25896 9.46563 7.1719 9.49105 7.08219 9.51725C6.61701 9.74456 6.39493 10.2499 6.14116 10.7616C6.07329 10.8961 6.0054 11.0307 5.93751 11.1652C5.90299 11.234 5.86847 11.3029 5.83291 11.3739C5.66275 11.713 5.49096 12.0508 5.31887 12.3884C5.28852 12.4485 5.25817 12.5087 5.2269 12.5706C5.06903 12.8807 4.90649 13.1866 4.73759 13.4873C4.70497 13.5459 4.67235 13.6045 4.63874 13.6648C4.51323 13.8283 4.42615 13.8591 4.25032 13.893C4.13599 13.7486 4.13599 13.7486 4.03925 13.5377C4.12394 13.1074 4.28465 12.7324 4.45699 12.3495C4.49774 12.2582 4.49774 12.2582 4.5393 12.165C4.78289 11.6295 5.05428 11.1216 5.33781 10.6187C5.47261 10.3788 5.58332 10.1763 5.65746 9.89548C5.57184 9.93945 5.48623 9.98343 5.39802 10.0287C5.171 10.1358 4.98769 10.2074 4.74282 10.162C4.69638 10.1034 4.64995 10.0447 4.6021 9.98432C4.6021 9.89637 4.6021 9.80843 4.6021 9.71782C5.00304 9.44523 5.39086 9.26687 5.8306 9.11576C6.02537 9.02527 6.02537 9.02527 6.10434 8.77361C6.11939 8.7041 6.13445 8.6346 6.14996 8.56298C6.212 8.56438 6.212 8.56438 6.2753 8.5658C7.03017 8.58048 7.76172 8.58027 8.50857 8.42973C8.84658 8.36835 9.1844 8.35125 9.52545 8.33569C9.76314 8.29188 9.89391 8.20141 10.09 8.02998C10.1495 7.98137 10.1495 7.98137 10.2103 7.93178C10.249 7.90006 10.2876 7.86834 10.3274 7.83566C10.4355 7.7516 10.544 7.66844 10.6528 7.58581C10.7251 7.53039 10.7974 7.47497 10.8719 7.41786C11.6034 6.8801 12.368 6.60091 13.1857 6.34214C13.2349 6.32583 13.2842 6.30951 13.3349 6.2927C13.5645 6.22427 13.7457 6.20299 13.9566 6.34804Z" fill="white"/>
<path d="M9.94924 8.29648C9.94924 8.47414 9.94924 8.47414 9.81732 8.65181C9.74332 8.73976 9.74332 8.73976 9.66782 8.82948C9.62138 8.88811 9.57494 8.94674 9.5271 9.00714C9.35472 9.03847 9.1859 9.06102 9.01262 9.07932C8.51399 9.14378 8.02835 9.25052 7.53951 9.39024C7.44533 9.41537 7.44533 9.41537 7.34924 9.44101C6.72042 9.62832 6.46988 10.0987 6.14116 10.7616C6.07329 10.8961 6.0054 11.0307 5.93751 11.1652C5.90299 11.234 5.86847 11.3029 5.83291 11.3738C5.66275 11.713 5.49096 12.0508 5.31887 12.3884C5.28852 12.4485 5.25817 12.5087 5.2269 12.5706C5.06903 12.8807 4.90649 13.1866 4.7376 13.4873C4.70497 13.5459 4.67235 13.6045 4.63874 13.6648C4.51323 13.8283 4.42615 13.8591 4.25032 13.893C4.13599 13.7486 4.13599 13.7486 4.03925 13.5376C4.12394 13.1074 4.28465 12.7324 4.45699 12.3495C4.49774 12.2582 4.49774 12.2582 4.5393 12.165C4.78289 11.6295 5.05428 11.1216 5.33781 10.6187C5.47261 10.3788 5.58332 10.1763 5.65746 9.89548C5.57184 9.93945 5.48623 9.98342 5.39802 10.0287C5.171 10.1358 4.98769 10.2074 4.74282 10.162C4.69638 10.1033 4.64995 10.0447 4.6021 9.98431C4.6021 9.89637 4.6021 9.80842 4.6021 9.71781C5.00304 9.44523 5.39086 9.26686 5.8306 9.11576C6.02537 9.02526 6.02537 9.02526 6.10434 8.77361C6.11939 8.7041 6.13445 8.63459 6.14996 8.56298C6.212 8.56437 6.212 8.56437 6.2753 8.5658C7.03011 8.58048 7.76103 8.57853 8.50802 8.43077C8.98362 8.34258 9.46839 8.29648 9.94924 8.29648Z" fill="white"/>
<path d="M9.59742 7.49698C9.44261 7.72168 9.33841 7.80142 9.10652 7.85082C9.0506 7.86325 8.99468 7.87567 8.93707 7.88848C8.87682 7.90071 8.81658 7.91293 8.75451 7.92553C8.69212 7.93896 8.62973 7.95238 8.56544 7.96621C8.43333 7.99441 8.30114 8.02207 8.1689 8.04926C7.96784 8.09068 7.76706 8.13384 7.56628 8.17728C7.43762 8.20451 7.30895 8.23164 7.18027 8.25866C7.09098 8.2778 7.09098 8.2778 6.99988 8.29734C6.64147 8.37017 6.30202 8.40912 5.93885 8.38531C5.79814 8.25206 5.79814 8.25206 5.72778 8.11881C5.751 8.06018 5.77422 8.00155 5.79814 7.94115C5.93904 7.88302 5.93904 7.88302 6.12437 7.83288C6.22601 7.805 6.22601 7.805 6.3297 7.77656C6.40243 7.75758 6.47515 7.73861 6.55008 7.71906C6.6608 7.68966 6.6608 7.68966 6.77376 7.65966C9.03511 7.06895 9.03511 7.06895 9.59742 7.49698Z" fill="white"/>
<path d="M9.316 10.2508C9.29278 10.456 9.26957 10.6612 9.24565 10.8726C9.22243 10.814 9.19921 10.7554 9.17529 10.695C9.10563 10.7389 9.10563 10.7389 9.03457 10.7838C9.00592 10.99 8.9822 11.1975 8.96422 11.4056C8.941 11.4056 8.91778 11.4056 8.89386 11.4056C8.87319 10.6227 8.87319 10.6227 9.03457 10.3396C9.17529 10.2508 9.17529 10.2508 9.316 10.2508Z" fill="white"/>
</g>
<path d="M19.44 13V7.496H23.232V8.712H21.16V9.824H23.08V10.896H21.16V13H19.44ZM26.4152 13.128C25.8392 13.128 25.3379 13.0107 24.9112 12.776C24.4899 12.5413 24.1619 12.216 23.9272 11.8C23.6925 11.384 23.5752 10.904 23.5752 10.36C23.5752 9.77867 23.6979 9.264 23.9432 8.816C24.1885 8.368 24.5325 8.016 24.9752 7.76C25.4179 7.504 25.9325 7.376 26.5192 7.376C27.1592 7.376 27.6685 7.504 28.0472 7.76L27.8072 9.016C27.4712 8.872 27.1219 8.8 26.7592 8.8C26.3219 8.8 25.9779 8.93067 25.7272 9.192C25.4765 9.45333 25.3512 9.816 25.3512 10.28C25.3512 10.7493 25.4632 11.1147 25.6872 11.376C25.9165 11.6373 26.2072 11.768 26.5592 11.768C26.6872 11.768 26.7939 11.7573 26.8792 11.736V10.368L28.2632 10.208V12.712C27.9592 12.8507 27.6499 12.9547 27.3352 13.024C27.0205 13.0933 26.7139 13.128 26.4152 13.128ZM32.6134 13.064C32.16 13.064 31.76 12.976 31.4134 12.8C31.0667 12.624 30.7947 12.3813 30.5974 12.072C30.4054 11.7573 30.3094 11.3973 30.3094 10.992C30.3094 10.576 30.408 10.216 30.6054 9.912C30.808 9.60267 31.0827 9.36267 31.4294 9.192C31.776 9.02133 32.1734 8.936 32.6214 8.936C33.08 8.936 33.4827 9.024 33.8294 9.2C34.176 9.37067 34.4454 9.61067 34.6374 9.92C34.8294 10.224 34.9254 10.5813 34.9254 10.992C34.9254 11.4027 34.8267 11.7653 34.6294 12.08C34.4374 12.3893 34.168 12.632 33.8214 12.808C33.4747 12.9787 33.072 13.064 32.6134 13.064ZM32.6294 11.864C32.848 11.864 33.0267 11.784 33.1654 11.624C33.3094 11.4587 33.3814 11.248 33.3814 10.992C33.3814 10.736 33.312 10.528 33.1734 10.368C33.0347 10.2027 32.8587 10.12 32.6454 10.12C32.416 10.12 32.2294 10.2027 32.0854 10.368C31.9467 10.528 31.8774 10.736 31.8774 10.992C31.8774 11.248 31.9467 11.4587 32.0854 11.624C32.2294 11.784 32.4107 11.864 32.6294 11.864ZM35.629 13V9.984H35.125V8.992H35.629V8.76C35.629 8.46667 35.701 8.216 35.845 8.008C35.989 7.79467 36.189 7.632 36.445 7.52C36.701 7.40267 36.997 7.344 37.333 7.344C37.7597 7.344 38.1117 7.40267 38.389 7.52L38.277 8.536C38.1597 8.50933 38.045 8.49067 37.933 8.48C37.821 8.464 37.7117 8.456 37.605 8.456C37.2477 8.456 37.069 8.56533 37.069 8.784C37.069 8.85333 37.0877 8.92267 37.125 8.992H38.253V9.984H37.317V13H35.629ZM42.405 8.392C42.1597 8.392 41.949 8.31467 41.773 8.16C41.597 8 41.509 7.80533 41.509 7.576C41.509 7.416 41.5517 7.27733 41.637 7.16C41.7223 7.03733 41.8343 6.94133 41.973 6.872C42.1117 6.80267 42.2557 6.768 42.405 6.768C42.5703 6.768 42.7197 6.80533 42.853 6.88C42.9917 6.95467 43.101 7.05333 43.181 7.176C43.2663 7.29867 43.309 7.432 43.309 7.576C43.309 7.736 43.2637 7.87733 43.173 8C43.0877 8.12267 42.9757 8.21867 42.837 8.288C42.7037 8.35733 42.5597 8.392 42.405 8.392ZM43.941 11.672L44.029 12.784C43.9117 12.8747 43.7597 12.944 43.573 12.992C43.3863 13.04 43.2157 13.064 43.061 13.064C42.7037 13.064 42.413 13 42.189 12.872C41.9703 12.744 41.8103 12.5707 41.709 12.352C41.6077 12.1333 41.557 11.888 41.557 11.616V9.984H40.277V13H38.589V9.984H38.085V8.992H38.589V8.76C38.589 8.46667 38.661 8.216 38.805 8.008C38.949 7.79467 39.149 7.632 39.405 7.52C39.661 7.40267 39.957 7.344 40.293 7.344C40.469 7.344 40.645 7.36 40.821 7.392C41.0023 7.41867 41.1597 7.46133 41.293 7.52L41.237 8.536C41.1197 8.50933 41.005 8.49067 40.893 8.48C40.781 8.464 40.6717 8.456 40.565 8.456C40.2077 8.456 40.029 8.56533 40.029 8.784C40.029 8.85333 40.0477 8.92267 40.085 8.992H43.245V11.384C43.245 11.5067 43.2797 11.6027 43.349 11.672C43.4237 11.736 43.5117 11.768 43.613 11.768C43.7197 11.768 43.829 11.736 43.941 11.672ZM46.4151 13.064C45.9671 13.064 45.5804 12.976 45.2551 12.8C44.9297 12.624 44.6791 12.384 44.5031 12.08C44.3271 11.7707 44.2391 11.416 44.2391 11.016C44.2391 10.6213 44.3297 10.2667 44.5111 9.952C44.6924 9.63733 44.9457 9.38933 45.2711 9.208C45.6017 9.02667 45.9831 8.936 46.4151 8.936C46.9324 8.936 47.3404 9.04267 47.6391 9.256L47.4631 10.344C47.3297 10.2853 47.2044 10.2453 47.0871 10.224C46.9697 10.1973 46.8577 10.184 46.7511 10.184C46.4897 10.184 46.2817 10.2587 46.1271 10.408C45.9777 10.552 45.9031 10.7493 45.9031 11C45.9031 11.2453 45.9777 11.4453 46.1271 11.6C46.2764 11.7493 46.4737 11.824 46.7191 11.824C46.9324 11.824 47.1831 11.7787 47.4711 11.688L47.6231 12.808C47.4471 12.8933 47.2631 12.9573 47.0711 13C46.8844 13.0427 46.6657 13.064 46.4151 13.064ZM49.7159 13.064C49.3586 13.064 49.0679 13 48.8439 12.872C48.6253 12.744 48.4653 12.5707 48.3639 12.352C48.2626 12.1333 48.2119 11.888 48.2119 11.616V8.992H49.8999V11.384C49.8999 11.5067 49.9346 11.6027 50.0039 11.672C50.0786 11.736 50.1666 11.768 50.2679 11.768C50.3746 11.768 50.4839 11.736 50.5959 11.672L50.6839 12.784C50.5666 12.8747 50.4146 12.944 50.2279 12.992C50.0413 13.04 49.8706 13.064 49.7159 13.064ZM49.0599 8.552C48.8146 8.552 48.6039 8.47467 48.4279 8.32C48.2519 8.16 48.1639 7.96533 48.1639 7.736C48.1639 7.576 48.2066 7.43733 48.2919 7.32C48.3773 7.19733 48.4893 7.10133 48.6279 7.032C48.7666 6.96267 48.9106 6.928 49.0599 6.928C49.2253 6.928 49.3746 6.96533 49.5079 7.04C49.6466 7.11467 49.7559 7.21333 49.8359 7.336C49.9213 7.45867 49.9639 7.592 49.9639 7.736C49.9639 7.896 49.9186 8.03733 49.8279 8.16C49.7426 8.28267 49.6306 8.37867 49.4919 8.448C49.3586 8.51733 49.2146 8.552 49.0599 8.552ZM52.8243 13.064C52.4563 13.064 52.1229 12.976 51.8243 12.8C51.5256 12.6187 51.2883 12.3707 51.1123 12.056C50.9416 11.7413 50.8563 11.3813 50.8563 10.976C50.8563 10.5707 50.9416 10.216 51.1123 9.912C51.2883 9.608 51.5256 9.37067 51.8243 9.2C52.1229 9.024 52.4563 8.936 52.8243 8.936C53.0856 8.936 53.3389 9.008 53.5843 9.152C53.8296 9.296 54.0189 9.53333 54.1523 9.864V8.992H55.8163V13H54.1363V12.256C54.0083 12.5173 53.8376 12.7173 53.6243 12.856C53.4109 12.9947 53.1443 13.064 52.8243 13.064ZM53.3443 11.8C53.5629 11.8 53.7496 11.7227 53.9043 11.568C54.0589 11.408 54.1363 11.2133 54.1363 10.984C54.1363 10.7547 54.0589 10.568 53.9043 10.424C53.7496 10.2747 53.5629 10.2 53.3443 10.2C53.1149 10.2 52.9229 10.2773 52.7682 10.432C52.6136 10.5867 52.5363 10.776 52.5363 11C52.5363 11.224 52.6136 11.4133 52.7682 11.568C52.9229 11.7227 53.1149 11.8 53.3443 11.8ZM58.1948 13.064C57.8161 13.064 57.5068 13 57.2668 12.872C57.0321 12.744 56.8614 12.5707 56.7548 12.352C56.6481 12.1333 56.5948 11.888 56.5948 11.616V7.568L58.2828 7.32V11.384C58.2828 11.5067 58.3228 11.6027 58.4028 11.672C58.4828 11.736 58.5868 11.768 58.7148 11.768C58.8428 11.768 58.9708 11.736 59.0988 11.672L59.2188 12.784C59.0908 12.8747 58.9281 12.944 58.7308 12.992C58.5334 13.04 58.3548 13.064 58.1948 13.064Z" fill="white"/>
<defs>
<clipPath id="clip0_22_11">
<rect x="3.19495" y="5.36497" width="12.805" height="10.66" rx="2" fill="white"/>
</clipPath>
</defs>
</svg>
